<?xml version="1.0" encoding="utf-8"?>
<!-- Generator: Adobe Illustrator 15.0.0, SVG Export Plug-In  -->
<!DOCTYPE svg PUBLIC "-//W3C//DTD SVG 1.1//EN" "http://www.w3.org/Graphics/SVG/1.1/DTD/svg11.dtd" [
	<!ENTITY ns_flows "http://ns.adobe.com/Flows/1.0/">
]>
<svg version="1.1"
	 xmlns="http://www.w3.org/2000/svg" xmlns:xlink="http://www.w3.org/1999/xlink" xmlns:a="http://ns.adobe.com/AdobeSVGViewerExtensions/3.0/"
	 x="0px" y="0px" width="421px" height="433px" viewBox="-0.439 0 421 433"
	 overflow="visible" enable-background="new -0.439 0 421 433" xml:space="preserve">
<defs>
</defs>
<path fill="#FFC60B" d="M148.833,302.524c0,0,59.112,23.499,88.965,4.704c0,0,23.271-17.91,2.796-31.272
	c0,0-16.419-13.52-55.347,6.887L148.833,302.524z"/>
<path fill="#FFC60B" d="M241.449,185.257c0,0-22.349,51.232-6.243,80.09c0,0,15.466,22.824,27.873,5.592
	c0,0,12.459-13.543-4.881-50.784L241.449,185.257z"/>
<path fill="#FFC60B" d="M103.399,272.516c0,0,56.649,19.523,83.267,0.4c0,0,20.539-17.981,0.577-29.681
	c0,0-16.185-12.035-51.165,9.025L103.399,272.516z"/>
<path fill="#FFC60B" d="M193.962,153.888c0,0-23.586,52.806-5.652,79.871c0,0,17.146,21.135,30.404,2.916
	c0,0,13.36-14.579-6.034-49.816L193.962,153.888z"/>
<path fill="#FFC60B" d="M63.368,245.623c0,0,55.891,18.969,79.349-1.156c0,0,17.779-18.849-2.392-30.479
	c0,0-16.608-12.047-47.837,10.227L63.368,245.623z"/>
<path fill="#FFC60B" d="M144.048,128.965c0,0-23.762,56.044-2.729,80.931c0,0,19.901,19.039,33.762-0.949
	c0,0,14.132-16.349-8.874-49.26L144.048,128.965z"/>
<path fill="#FFC60B" d="M22.242,211.403c0,0,57.367,22.302,82.857,2.279c0,0,19.506-18.945-0.955-32.002
	c0,0-16.725-13.33-50.436,8.602L22.242,211.403z"/>
<path fill="#FFC60B" d="M91.343,99.75c0,0-18.721,52.035,1.769,72.904c0,0,19.152,15.695,30.742-3.247
	c0,0,12.03-15.688-10.683-43.626L91.343,99.75z"/>
<path fill="#FFC60B" d="M0,138.791c0,0,31.101,40.614,57.756,34.068c0,0,21.946-7.973,13.04-26.652c0,0-6.14-17.45-39.438-12.535
	L0,138.791z"/>
<path fill="#FFC60B" d="M404.228,432.666h6.231l4.06-2.907c0,0-42.41-80.872-152.94-146.855l-2.562,8.357
	c0,0,106.691,67.919,145.094,141.411C404.151,432.671,404.188,432.666,404.228,432.666z"/>
<path fill="#FFC60B" d="M289.114,232.227c0,0,26.503,59.264,58.695,65.127c0,0,27.099,2.012,21.127-22.617
	c0,0-3.072-21.951-42.542-32.82L289.114,232.227z"/>
<path fill="#FFC60B" d="M417.389,197.583c0,0-47.257,32.26-46.724,67.449c0,0,3,29.45,23.521,21.5c0,0,18.693-4.643,21.266-48.01
	L417.389,197.583z"/>
<path fill="#FFC60B" d="M271.273,171.336c0,0,30.271,55.023,61.919,59.005c0,0,26.406,0.582,18.709-22.531
	c0,0-4.676-20.708-43.757-29.092L271.273,171.336z"/>
<path fill="#FFC60B" d="M408.031,141.828c0,0-50.005,22.69-53.39,55.565c0,0-0.319,27.897,20.729,23.689
	c0,0,18.876-1.418,26.222-41.418L408.031,141.828z"/>
<path fill="#FFC60B" d="M260.143,125.147c0,0,34.085,47.08,62.721,45.759c0,0,23.543-3.699,13.684-24.281
	c0,0-6.857-18.803-42.68-20.435L260.143,125.147z"/>
<path fill="#FFC60B" d="M388.081,85.106c0,0-47.216,25.49-48.057,57.413c0,0,1.79,26.908,22.059,21.33
	c0,0,18.366-2.736,22.539-41.814L388.081,85.106z"/>
<path fill="#FFC60B" d="M248.285,65.392c0,0,25.596,51.386,53.588,54.071c0,0,23.432-0.383,17.134-22.143
	c0,0-3.668-19.579-38.162-26.191L248.285,65.392z"/>
<path fill="#FFC60B" d="M367.202,34.562c0,0-47.053,22.919-46.65,53.124c0,0,2.88,25.524,23.295,20.762
	c0,0,18.584-2.117,21.292-39.011L367.202,34.562z"/>
<path fill="#FFC60B" d="M291.905,0c0,0-15.577,45.421,0.422,64.693c0,0,15.013,14.637,24.476-1.719c0,0,9.769-13.45-7.906-39.075
	L291.905,0z"/>
<path fill="#FFC60B" d="M420.561,425.875c-6.335-23.79-34.18-127.556-39.675-134.218l-6.076,1.769c0,0,37.777,123.892,37.026,139.24
	h3.337l5.388-1.566V425.875z"/>
<polygon opacity="0.58" fill="#FFFFFF" points="39.049,149.775 29.945,150.663 29.06,141.71 38.165,140.822 "/>
<polygon opacity="0.33" fill="#FFFFFF" points="53.251,158.806 44.145,159.693 43.26,150.74 52.366,149.852 "/>
<polygon opacity="0.28" fill="#F15D22" points="25.439,144.604 15.781,145.547 14.92,136.829 24.578,135.887 "/>
<polygon opacity="0.28" fill="#F15D22" points="52.129,171.536 42.471,172.478 41.61,163.76 51.267,162.818 "/>
<polygon opacity="0.32" fill="#775C25" points="100.906,207.275 92.411,208.103 91.609,199.984 100.103,199.156 "/>
<polygon opacity="0.58" fill="#FFFFFF" points="46.737,211.731 38.325,212.552 37.508,204.282 45.92,203.461 "/>
<polygon opacity="0.13" fill="#F15D22" points="59.635,207.199 50.713,208.068 49.917,200.015 58.839,199.145 "/>
<polygon opacity="0.32" fill="#775C25" points="81.186,191.934 72.689,192.762 71.886,184.643 80.383,183.814 "/>
<polygon opacity="0.33" fill="#FFFFFF" points="83.603,204.412 75.19,205.232 74.373,196.96 82.785,196.14 "/>
<polygon opacity="0.28" fill="#F15D22" points="85,215.936 76.077,216.805 75.281,208.752 84.203,207.882 "/>
<polygon opacity="0.58" fill="#FFFFFF" points="70.012,215.06 61.599,215.881 60.781,207.608 69.193,206.789 "/>
<polygon opacity="0.13" fill="#F15D22" points="93.222,194.825 84.3,195.695 83.504,187.642 92.426,186.772 "/>
<polygon opacity="0.58" fill="#FFFFFF" points="103.549,191.488 95.137,192.309 94.319,184.037 102.731,183.217 "/>
<polygon opacity="0.32" fill="#775C25" points="139.435,242.349 130.942,243.176 130.139,235.057 138.632,234.228 "/>
<polygon opacity="0.58" fill="#FFFFFF" points="85.268,246.804 76.854,247.625 76.036,239.355 84.451,238.535 "/>
<polygon opacity="0.13" fill="#F15D22" points="98.164,242.271 89.242,243.141 88.446,235.088 97.368,234.219 "/>
<polygon opacity="0.32" fill="#775C25" points="119.715,227.005 111.219,227.835 110.416,219.715 118.913,218.887 "/>
<polygon opacity="0.33" fill="#FFFFFF" points="122.134,239.484 113.72,240.306 112.901,232.033 121.315,231.212 "/>
<polygon opacity="0.28" fill="#F15D22" points="123.529,251.01 114.608,251.878 113.812,243.824 122.733,242.953 "/>
<polygon opacity="0.58" fill="#FFFFFF" points="108.542,250.133 100.128,250.953 99.311,242.681 107.724,241.86 "/>
<polygon opacity="0.13" fill="#F15D22" points="131.752,229.899 122.832,230.768 122.035,222.715 130.956,221.846 "/>
<polygon opacity="0.58" fill="#FFFFFF" points="143.296,226.442 134.883,227.262 134.065,218.992 142.478,218.171 "/>
<polygon opacity="0.32" fill="#775C25" points="183.495,267.903 175.002,268.73 174.199,260.611 182.693,259.784 "/>
<polygon opacity="0.58" fill="#FFFFFF" points="129.327,272.358 120.915,273.181 120.098,264.912 128.51,264.091 "/>
<polygon opacity="0.13" fill="#F15D22" points="142.225,267.829 133.303,268.697 132.506,260.646 141.429,259.776 "/>
<polygon opacity="0.32" fill="#775C25" points="163.776,252.564 155.279,253.392 154.476,245.271 162.973,244.444 "/>
<polygon opacity="0.33" fill="#FFFFFF" points="166.193,265.041 157.781,265.862 156.963,257.59 165.375,256.771 "/>
<polygon opacity="0.28" fill="#F15D22" points="167.588,276.565 158.668,277.436 157.872,269.382 166.792,268.512 "/>
<polygon opacity="0.58" fill="#FFFFFF" points="152.601,275.69 144.188,276.511 143.372,268.238 151.784,267.417 "/>
<polygon opacity="0.13" fill="#F15D22" points="175.813,255.456 166.891,256.326 166.094,248.271 175.017,247.401 "/>
<polygon opacity="0.58" fill="#FFFFFF" points="187.596,254.416 179.184,255.235 178.367,246.965 186.778,246.146 "/>
<polygon opacity="0.32" fill="#775C25" points="98.48,124.038 90.417,125.31 89.17,117.517 97.234,116.245 "/>
<polygon opacity="0.33" fill="#FFFFFF" points="108.414,133.355 100.427,134.616 99.157,126.676 107.143,125.416 "/>
<polygon opacity="0.28" fill="#F15D22" points="96.656,137.172 88.185,138.509 86.949,130.78 95.418,129.443 "/>
<polygon opacity="0.58" fill="#FFFFFF" points="109.172,157.759 101.186,159.02 99.916,151.081 107.902,149.821 "/>
<polygon opacity="0.13" fill="#F15D22" points="120.48,148.028 112.01,149.364 110.774,141.635 119.244,140.298 "/>
<polygon opacity="0.32" fill="#775C25" points="97.12,152.541 89.056,153.813 87.81,146.021 95.874,144.75 "/>
<polygon opacity="0.28" fill="#F15D22" points="111.537,171.064 103.067,172.4 101.831,164.672 110.301,163.335 "/>
<polygon opacity="0.32" fill="#775C25" points="51.897,145.615 42.703,146.511 41.834,137.723 51.028,136.827 "/>
<polygon opacity="0.26" fill="#775C25" points="42.634,162.834 33.44,163.73 32.57,154.942 41.765,154.046 "/>
<polygon opacity="0.32" fill="#775C25" points="149.955,152.085 141.461,152.914 140.658,144.793 149.151,143.965 "/>
<polygon opacity="0.33" fill="#FFFFFF" points="159.723,162.302 151.31,163.123 150.493,154.85 158.905,154.029 "/>
<polygon opacity="0.28" fill="#F15D22" points="147.211,165.536 138.29,166.405 137.494,158.351 146.415,157.481 "/>
<polygon opacity="0.58" fill="#FFFFFF" points="148.267,178.825 139.854,179.645 139.038,171.373 147.45,170.552 "/>
<polygon opacity="0.13" fill="#F15D22" points="161.163,174.292 152.243,175.161 151.447,167.108 160.368,166.239 "/>
<polygon opacity="0.32" fill="#775C25" points="154.109,194.125 145.616,194.953 144.813,186.833 153.307,186.005 "/>
<polygon opacity="0.28" fill="#F15D22" points="172.376,196.608 163.455,197.478 162.658,189.424 171.581,188.554 "/>
<polygon opacity="0.33" fill="#FFFFFF" points="164.477,210.393 156.063,211.212 155.245,202.941 163.658,202.12 "/>
<polygon opacity="0.32" fill="#775C25" points="200.142,180.139 191.649,180.967 190.847,172.847 199.339,172.019 "/>
<polygon opacity="0.33" fill="#FFFFFF" points="208.932,192.89 200.52,193.71 199.702,185.438 208.116,184.617 "/>
<polygon opacity="0.28" fill="#F15D22" points="196.422,196.122 187.499,196.992 186.703,188.938 195.626,188.069 "/>
<polygon opacity="0.58" fill="#FFFFFF" points="193.829,209.768 185.416,210.588 184.598,202.317 193.011,201.496 "/>
<polygon opacity="0.13" fill="#F15D22" points="210.493,206.087 201.572,206.958 200.776,198.904 209.696,198.035 "/>
<polygon opacity="0.32" fill="#775C25" points="208.185,224.238 199.692,225.066 198.89,216.947 207.382,216.119 "/>
<polygon opacity="0.28" fill="#F15D22" points="220.75,218.737 211.83,219.606 211.033,211.555 219.956,210.686 "/>
<polygon opacity="0.32" fill="#775C25" points="248.116,206.015 239.626,206.874 238.793,198.758 247.284,197.898 "/>
<polygon opacity="0.33" fill="#FFFFFF" points="252.878,222.946 245.322,223.711 244.56,216.281 252.119,215.515 "/>
<polygon opacity="0.28" fill="#F15D22" points="243.377,230.582 234.458,231.484 233.634,223.432 242.551,222.532 "/>
<polygon opacity="0.58" fill="#FFFFFF" points="244.486,243.868 236.073,244.719 235.223,236.449 243.636,235.599 "/>
<polygon opacity="0.13" fill="#F15D22" points="256.151,239.41 247.234,240.312 246.407,232.263 255.327,231.361 "/>
<polygon opacity="0.32" fill="#775C25" points="249.779,259.206 241.287,260.067 240.453,251.95 248.945,251.092 "/>
<polygon opacity="0.28" fill="#F15D22" points="266.709,254.752 257.527,255.196 257.121,246.907 266.302,246.463 "/>
<polygon opacity="0.32" fill="#775C25" points="234.168,302.91 225.674,303.738 224.873,295.618 233.366,294.79 "/>
<polygon opacity="0.58" fill="#FFFFFF" points="176.112,305.306 167.698,306.126 166.88,297.854 175.294,297.034 "/>
<polygon opacity="0.13" fill="#F15D22" points="189.008,300.771 180.087,301.642 179.292,293.588 188.212,292.719 "/>
<polygon opacity="0.32" fill="#775C25" points="217.474,282.421 208.977,283.248 208.175,275.126 216.672,274.299 "/>
<polygon opacity="0.33" fill="#FFFFFF" points="214.193,297.867 205.78,298.688 204.963,290.415 213.376,289.594 "/>
<polygon opacity="0.28" fill="#F15D22" points="216.696,310.498 207.51,310.909 207.134,302.615 216.32,302.204 "/>
<polygon opacity="0.58" fill="#FFFFFF" points="199.313,302.725 190.652,303.113 190.266,294.596 198.927,294.209 "/>
<polygon opacity="0.13" fill="#F15D22" points="226.468,291.92 217.549,292.79 216.753,284.735 225.672,283.865 "/>
<polygon opacity="0.58" fill="#FFFFFF" points="236.574,284.707 228.159,285.526 227.342,277.256 235.755,276.434 "/>
<polygon opacity="0.28" fill="#F15D22" points="248.012,290.956 239.092,291.826 238.295,283.772 247.216,282.903 "/>
<polygon opacity="0.33" fill="#FFFFFF" points="205.675,285.281 197.261,286.102 196.443,277.828 204.857,277.009 "/>
<polygon opacity="0.58" fill="#FFFFFF" points="219.684,206.457 211.272,207.277 210.456,199.004 218.868,198.185 "/>
<rect x="176.1" y="336.829" transform="matrix(0.999 -0.0445 0.0445 0.999 -14.9168 8.2778)" opacity="0.58" fill="#FFFFFF" width="4.674" height="4.596"/>
<polygon opacity="0.13" fill="#F15D22" points="69.039,155.351 59.382,156.293 58.521,147.577 68.177,146.634 "/>
<polygon opacity="0.58" fill="#FFFFFF" points="290.483,306.7 285.638,309.253 283.636,303.331 288.481,300.78 "/>
<polygon opacity="0.32" fill="#775C25" points="273.965,295.638 269.099,298.202 267.143,292.415 272.008,289.851 "/>
<polygon opacity="0.28" fill="#F15D22" points="308.235,319.886 303.249,322.512 301.355,316.915 306.344,314.288 "/>
<polygon opacity="0.33" fill="#FFFFFF" points="322.847,330.867 317.799,333.528 315.71,327.357 320.759,324.696 "/>
<polygon opacity="0.13" fill="#F15D22" points="282.635,301.589 277.39,304.354 275.395,298.463 280.645,295.7 "/>
<polygon opacity="0.13" fill="#F15D22" points="298.448,313.217 293.302,313.719 292.842,309.073 297.988,308.571 "/>
<polygon opacity="0.32" fill="#775C25" points="342.125,348.78 337.253,351.348 335.297,345.561 340.167,342.995 "/>
<polygon opacity="0.32" fill="#775C25" points="409.88,220.904 401.729,221.269 401.375,213.477 409.526,213.113 "/>
<polygon opacity="0.28" fill="#F15D22" points="412.826,230.166 404.264,230.55 403.914,222.82 412.475,222.438 "/>
<polygon opacity="0.58" fill="#FFFFFF" points="409.137,248.818 401.064,249.182 400.703,241.243 408.777,240.881 "/>
<polygon opacity="0.13" fill="#F15D22" points="398.01,229.909 389.451,230.292 389.1,222.562 397.661,222.18 "/>
<polygon opacity="0.32" fill="#775C25" points="404.069,273.496 395.919,273.86 395.565,266.068 403.715,265.703 "/>
<polygon opacity="0.28" fill="#F15D22" points="399.337,259.189 390.777,259.572 390.427,251.843 398.987,251.46 "/>
<polygon opacity="0.33" fill="#FFFFFF" points="392.697,245.578 384.625,245.938 384.266,238 392.336,237.639 "/>
<polygon opacity="0.13" fill="#F15D22" points="382.404,256.19 373.843,256.572 373.493,248.847 382.053,248.464 "/>
<polygon opacity="0.32" fill="#775C25" points="382.902,271.669 374.75,272.034 374.397,264.242 382.548,263.88 "/>
<polygon opacity="0.33" fill="#FFFFFF" points="353.304,358.775 348.258,361.436 346.17,355.264 351.221,352.603 "/>
<polygon opacity="0.28" fill="#F15D22" points="365.349,370.779 360.361,373.408 358.468,367.812 363.456,365.184 "/>
<polygon opacity="0.32" fill="#775C25" points="335.53,255.321 327.378,255.687 327.025,247.893 335.176,247.528 "/>
<polygon opacity="0.33" fill="#FFFFFF" points="349.581,265.329 341.506,265.689 341.147,257.75 349.219,257.39 "/>
<polygon opacity="0.28" fill="#F15D22" points="336.301,267.84 327.74,268.222 327.39,260.495 335.951,260.111 "/>
<polygon opacity="0.58" fill="#FFFFFF" points="336.634,280.581 328.561,280.94 328.203,273.001 336.274,272.642 "/>
<polygon opacity="0.13" fill="#F15D22" points="350.346,276.847 341.787,277.23 341.436,269.5 349.996,269.118 "/>
<polygon opacity="0.32" fill="#775C25" points="309.25,248.638 301.098,249.004 300.745,241.212 308.896,240.848 "/>
<polygon opacity="0.28" fill="#F15D22" points="361.03,290.877 352.468,291.261 352.119,283.53 360.678,283.148 "/>
<polygon opacity="0.33" fill="#FFFFFF" points="322.31,260.919 314.238,261.279 313.877,253.342 321.95,252.981 "/>
<polygon opacity="0.32" fill="#775C25" points="399.459,157.582 391.782,157.925 391.448,150.584 399.127,150.241 "/>
<polygon opacity="0.28" fill="#F15D22" points="400.187,169.375 392.124,169.736 391.793,162.456 399.858,162.095 "/>
<polygon opacity="0.58" fill="#FFFFFF" points="400.6,183.564 392.994,183.904 392.656,176.424 400.261,176.085 "/>
<polygon opacity="0.13" fill="#F15D22" points="387.234,169.226 379.168,169.585 378.838,162.305 386.905,161.945 "/>
<polygon opacity="0.32" fill="#775C25" points="378.432,183.177 370.753,183.521 370.421,176.18 378.099,175.837 "/>
<polygon opacity="0.28" fill="#F15D22" points="389.681,206.338 381.616,206.698 381.286,199.417 389.351,199.057 "/>
<polygon opacity="0.33" fill="#FFFFFF" points="388.042,192.145 380.435,192.484 380.097,185.006 387.702,184.667 "/>
<polygon opacity="0.13" fill="#F15D22" points="372.757,200.405 364.691,200.766 364.361,193.486 372.427,193.125 "/>
<polygon opacity="0.32" fill="#775C25" points="373.225,214.989 365.546,215.332 365.214,207.992 372.893,207.648 "/>
<polygon opacity="0.28" fill="#F15D22" points="345.039,209.076 336.477,209.459 336.126,201.73 344.689,201.348 "/>
<polygon opacity="0.32" fill="#775C25" points="317.682,190.989 309.532,191.354 309.177,183.562 317.329,183.198 "/>
<polygon opacity="0.33" fill="#FFFFFF" points="331.732,200.998 323.659,201.359 323.299,193.42 331.373,193.059 "/>
<polygon opacity="0.28" fill="#F15D22" points="318.455,203.509 309.893,203.892 309.542,196.164 318.104,195.782 "/>
<polygon opacity="0.58" fill="#FFFFFF" points="318.786,216.249 310.711,216.609 310.353,208.672 318.427,208.312 "/>
<polygon opacity="0.13" fill="#F15D22" points="332.499,212.517 323.938,212.899 323.588,205.171 332.149,204.789 "/>
<polygon opacity="0.32" fill="#775C25" points="291.4,184.309 283.252,184.673 282.898,176.882 291.046,176.518 "/>
<polygon opacity="0.28" fill="#F15D22" points="343.182,226.547 334.622,226.93 334.271,219.201 342.832,218.818 "/>
<polygon opacity="0.33" fill="#FFFFFF" points="304.462,196.587 296.389,196.948 296.03,189.012 304.102,188.651 "/>
<polygon opacity="0.28" fill="#F15D22" points="335.409,156.409 326.848,156.792 326.499,149.064 335.059,148.682 "/>
<polygon opacity="0.32" fill="#775C25" points="308.053,138.324 299.902,138.688 299.549,130.896 307.699,130.532 "/>
<polygon opacity="0.33" fill="#FFFFFF" points="322.104,148.332 314.029,148.693 313.669,140.753 321.744,140.393 "/>
<polygon opacity="0.28" fill="#F15D22" points="308.825,150.843 300.265,151.225 299.913,143.497 308.475,143.114 "/>
<rect x="300.901" y="155.82" transform="matrix(0.999 -0.0447 0.0447 0.999 -6.8404 13.7959)" opacity="0.58" fill="#FFFFFF" width="8.08" height="7.947"/>
<polygon opacity="0.13" fill="#F15D22" points="322.871,159.849 314.309,160.231 313.959,152.503 322.52,152.121 "/>
<polygon opacity="0.32" fill="#775C25" points="281.981,136.28 273.832,136.643 273.479,128.852 281.629,128.488 "/>
<polygon opacity="0.28" fill="#F15D22" points="350.331,147.438 341.769,147.822 341.418,140.094 349.98,139.71 "/>
<polygon opacity="0.33" fill="#FFFFFF" points="292.5,144.026 284.426,144.387 284.065,136.45 292.14,136.089 "/>
<polygon opacity="0.28" fill="#F15D22" points="359.334,124.404 350.773,124.787 350.423,117.059 358.984,116.676 "/>
<polygon opacity="0.13" fill="#F15D22" points="385.199,101.933 376.638,102.316 376.288,94.587 384.849,94.205 "/>
<polygon opacity="0.32" fill="#775C25" points="369.838,117.091 361.69,117.456 361.336,109.665 369.486,109.3 "/>
<polygon opacity="0.28" fill="#F15D22" points="377.524,127.568 368.962,127.951 368.612,120.223 377.173,119.841 "/>
<polygon opacity="0.13" fill="#F15D22" points="362.687,137.896 354.125,138.278 353.775,130.55 362.336,130.168 "/>
<polygon opacity="0.32" fill="#775C25" points="363.184,153.374 355.034,153.738 354.68,145.946 362.832,145.582 "/>
<polygon opacity="0.58" fill="#FFFFFF" points="377.073,143.911 368.999,144.271 368.639,136.333 376.711,135.973 "/>
<polygon opacity="0.28" fill="#F15D22" points="312.615,114.014 304.054,114.396 303.703,106.668 312.263,106.286 "/>
<polygon opacity="0.32" fill="#775C25" points="291.682,82.293 283.531,82.657 283.178,74.866 291.33,74.502 "/>
<polygon opacity="0.33" fill="#FFFFFF" points="305.734,92.302 297.661,92.663 297.301,84.724 305.375,84.363 "/>
<polygon opacity="0.28" fill="#F15D22" points="292.455,94.812 283.893,95.194 283.543,87.467 292.105,87.084 "/>
<polygon opacity="0.58" fill="#FFFFFF" points="292.788,107.552 284.714,107.913 284.354,99.976 292.426,99.615 "/>
<polygon opacity="0.13" fill="#F15D22" points="306.5,103.82 297.939,104.202 297.588,96.474 306.149,96.092 "/>
<polygon opacity="0.33" fill="#FFFFFF" points="276.127,87.996 268.054,88.356 267.695,80.419 275.769,80.059 "/>
<polygon opacity="0.58" fill="#FFFFFF" points="302.859,37.678 302.735,29.086 310.757,29.006 310.88,37.598 "/>
<polygon opacity="0.33" fill="#FFFFFF" points="297.837,50.501 297.448,41.914 305.463,41.556 305.853,50.144 "/>
<polygon opacity="0.28" fill="#F15D22" points="291.451,21.508 291.038,12.401 298.84,12.052 299.253,21.159 "/>
<polygon opacity="0.28" fill="#F15D22" points="286.55,48.779 286.138,39.67 293.939,39.322 294.352,48.43 "/>
<polygon opacity="0.32" fill="#775C25" points="309.646,49.928 309.253,41.258 317.119,40.906 317.512,49.577 "/>
<polygon opacity="0.26" fill="#775C25" points="290.589,36.172 290.197,27.502 298.061,27.15 298.455,35.82 "/>
<polygon opacity="0.13" fill="#F15D22" points="300.218,65.492 299.805,56.385 307.607,56.037 308.021,65.144 "/>
<polygon opacity="0.28" fill="#F15D22" points="332.488,94.048 323.925,94.431 323.576,86.703 332.136,86.32 "/>
<polygon opacity="0.28" fill="#F15D22" points="341.49,71.013 332.93,71.395 332.581,63.667 341.14,63.285 "/>
<polygon opacity="0.13" fill="#F15D22" points="362.545,51.304 353.983,51.688 353.633,43.959 362.196,43.577 "/>
<polygon opacity="0.32" fill="#775C25" points="351.998,63.7 343.846,64.064 343.492,56.273 351.644,55.909 "/>
<polygon opacity="0.28" fill="#F15D22" points="359.68,74.178 351.12,74.561 350.768,66.832 359.331,66.449 "/>
<polygon opacity="0.13" fill="#F15D22" points="344.843,84.504 336.283,84.887 335.932,77.159 344.493,76.776 "/>
<polygon opacity="0.32" fill="#775C25" points="345.341,99.983 337.191,100.348 336.837,92.556 344.988,92.191 "/>
<polygon opacity="0.58" fill="#FFFFFF" points="359.228,90.519 351.156,90.88 350.796,82.943 358.868,82.582 "/>
<rect x="392.721" y="346.188" transform="matrix(0.999 -0.0447 0.0447 0.999 -15.1877 18.0148)" opacity="0.32" fill="#775C25" width="5.487" height="5.247"/>
<polygon opacity="0.28" fill="#F15D22" points="383.569,300.75 378.501,300.978 378.293,296.403 383.361,296.179 "/>
<rect x="381.371" y="308.768" transform="matrix(0.999 -0.0449 0.0449 0.999 -13.5668 17.5342)" opacity="0.13" fill="#F15D22" width="5.072" height="4.58"/>
<rect x="384.221" y="314.827" transform="matrix(0.999 -0.0443 0.0443 0.999 -13.6759 17.4478)" opacity="0.32" fill="#775C25" width="4.848" height="4.632"/>
<rect x="389.891" y="333.417" transform="matrix(0.999 -0.0447 0.0447 0.999 -14.5994 17.8502)" opacity="0.33" fill="#FFFFFF" width="4.394" height="4.32"/>
<g>
	<path fill="#FFC60B" d="M408.505,431.16c0,0-85.34,11.289-133.404-29.439c0,0-57.165-45.562-90.997-56.794
		c0,0-42.313-14.988-57.059-12.593c0,0,19.144-11.776,70.035,2.278c0,0,60.138,17.972,88.167,42.991c0,0,37.19,24.517,59.427,32.881
		C344.673,410.484,402.618,427.039,408.505,431.16z"/>
</g>
<polygon opacity="0.32" fill="#775C25" points="261.579,369.838 254.454,371.782 252.917,364.161 260.04,362.216 "/>
<polygon opacity="0.58" fill="#FFFFFF" points="264.781,385.911 257.726,387.838 256.16,380.072 263.217,378.147 "/>
<polygon opacity="0.13" fill="#F15D22" points="277.495,379.227 270.014,381.271 268.49,373.709 275.971,371.666 "/>
<polygon opacity="0.28" fill="#F15D22" points="328.298,417.037 320.816,419.077 319.291,411.52 326.773,409.476 "/>
<polygon opacity="0.58" fill="#FFFFFF" points="300.86,393.054 293.804,394.979 292.238,387.214 299.293,385.287 "/>
<polygon opacity="0.28" fill="#F15D22" points="303.962,407.325 296.48,409.367 294.956,401.81 302.437,399.767 "/>
<polygon opacity="0.32" fill="#775C25" points="316.462,405.544 309.338,407.487 307.802,399.864 314.926,397.921 "/>
<polygon opacity="0.58" fill="#FFFFFF" points="342.763,417.185 335.706,419.11 334.141,411.346 341.196,409.418 "/>
<polygon opacity="0.13" fill="#F15D22" points="359.692,424.021 352.21,426.061 350.686,418.503 358.168,416.46 "/>
<polygon opacity="0.28" fill="#F15D22" points="280.054,391.91 272.572,393.952 271.047,386.393 278.53,384.35 "/>
<polygon opacity="0.32" fill="#775C25" points="368.903,424.124 364.113,425.431 363.08,420.304 367.869,418.995 "/>
<polygon opacity="0.13" fill="#F15D22" points="247.259,369.691 239.777,371.732 238.253,364.174 245.735,362.131 "/>
<polygon opacity="0.13" fill="#F15D22" points="388.712,430.296 381.926,432.15 380.544,425.293 387.331,423.439 "/>
<polygon opacity="0.32" fill="#775C25" points="221.178,356.342 214.055,358.286 212.517,350.665 219.642,348.72 "/>
<polygon opacity="0.28" fill="#F15D22" points="205.386,348.878 197.904,350.917 196.379,343.357 203.862,341.314 "/>
<polygon opacity="0.28" fill="#F15D22" points="236.795,360.054 229.315,362.094 227.791,354.537 235.272,352.493 "/>
<polygon opacity="0.32" fill="#775C25" points="166.359,335.441 161.275,336.829 160.177,331.391 165.261,330.002 "/>
</svg>
