<?xml version="1.0" encoding="UTF-8" standalone="no"?>
<svg width="216px" height="212px" viewBox="0 0 216 212" version="1.1" xmlns="http://www.w3.org/2000/svg" xmlns:xlink="http://www.w3.org/1999/xlink" xmlns:sketch="http://www.bohemiancoding.com/sketch/ns">
    <title>wheat_shadow</title>
    <description>Created with Sketch (http://www.bohemiancoding.com/sketch)</description>
    <defs></defs>
    <g id="Page-1" stroke="none" stroke-width="1" fill="none" fill-rule="evenodd" sketch:type="MSPage">
        <g id="wheat" sketch:type="MSLayerGroup" transform="translate(1.000000, 0.000000)">
            <path d="M0,84.476 C0,84.476 13.425,184.28 58.181,204.375 C58.181,204.375 97.123,216.818 98.946,177.089 C98.946,177.089 103.886,142.457 50.591,112.199 L0,84.476 L0,84.476 L0,84.476 L0,84.476 Z M0,84.476" id="Shape" fill="#FFC60B" sketch:type="MSShapeGroup"></path>
            <path d="M213.876,99.549 C213.876,99.549 123.226,111.426 106.914,161.918 C106.914,161.918 97.327,206.002 133.747,209.472 C133.747,209.472 165.652,216.323 190.866,156.436 L213.876,99.549 L213.876,99.549 L213.876,99.549 L213.876,99.549 Z M213.876,99.549" id="Shape" fill="#FFC60B" sketch:type="MSShapeGroup"></path>
            <path d="M108.85,0 C108.85,0 57.574,66.895 73.186,107.898 C73.186,107.898 89.772,140.638 114.606,118.699 C114.606,118.699 138.312,101.767 123.502,49.257 L108.85,0 L108.85,0 L108.85,0 L108.85,0 Z M108.85,0" id="Shape" fill="#FFC60B" sketch:type="MSShapeGroup"></path>
            <rect d="M66.2286976,185.902509 L66.2286976,199.489973 L81.1791074,199.489973 L81.1791074,185.902509 L66.2286976,185.902509 Z M66.2286976,185.902509" id="Rectangle" opacity="0.28" fill="#F15D22" sketch:type="MSShapeGroup" transform="translate(73.703902, 192.696241) rotate(16.087852) translate(-73.703902, -192.696241) " x="66.2286976" y="185.902509" width="14.9504098" height="13.5874636"></rect>
            <rect d="M50.1649477,121.426272 L50.1649477,135.124111 L64.4007803,135.124111 L64.4007803,121.426272 L50.1649477,121.426272 Z M50.1649477,121.426272" id="Rectangle" opacity="0.32" fill="#775C25" sketch:type="MSShapeGroup" transform="translate(57.282864, 128.275192) rotate(16.093357) translate(-57.282864, -128.275192) " x="50.1649477" y="121.426272" width="14.2358326" height="13.6978389"></rect>
            <rect d="M67.9362168,145.695693 L67.9362168,159.656096 L82.0336243,159.656096 L82.0336243,145.695693 L67.9362168,145.695693 Z M67.9362168,145.695693" id="Rectangle" opacity="0.33" fill="#FFFFFF" sketch:type="MSShapeGroup" transform="translate(74.984921, 152.675894) rotate(16.080759) translate(-74.984921, -152.675894) " x="67.9362168" y="145.695693" width="14.0974075" height="13.9604035"></rect>
            <rect d="M43.6913045,142.694287 L43.6913045,156.281751 L58.6427143,156.281751 L58.6427143,142.694287 L43.6913045,142.694287 Z M43.6913045,142.694287" id="Rectangle" opacity="0.28" fill="#F15D22" sketch:type="MSShapeGroup" transform="translate(51.167009, 149.488019) rotate(16.087852) translate(-51.167009, -149.488019) " x="43.6913045" y="142.694287" width="14.9514098" height="13.5874636"></rect>
            <rect d="M37.9649416,163.840259 L37.9649416,177.792708 L52.0623851,177.792708 L52.0623851,163.840259 L37.9649416,163.840259 Z M37.9649416,163.840259" id="Rectangle" opacity="0.58" fill="#FFFFFF" sketch:type="MSShapeGroup" transform="translate(45.013663, 170.816484) rotate(16.087852) translate(-45.013663, -170.816484) " x="37.9649416" y="163.840259" width="14.0974435" height="13.9524492"></rect>
            <rect d="M61.8416074,165.54158 L61.8416074,179.130349 L76.7904536,179.130349 L76.7904536,165.54158 L61.8416074,165.54158 Z M61.8416074,165.54158" id="Rectangle" opacity="0.13" fill="#F15D22" sketch:type="MSShapeGroup" transform="translate(69.316030, 172.335965) rotate(16.086264) translate(-69.316030, -172.335965) " x="61.8416074" y="165.54158" width="14.9488462" height="13.5887692"></rect>
            <rect d="M21.4299206,122.003929 L21.4299206,135.961333 L35.5313281,135.961333 L35.5313281,122.003929 L21.4299206,122.003929 Z M21.4299206,122.003929" id="Rectangle" opacity="0.33" fill="#FFFFFF" sketch:type="MSShapeGroup" transform="translate(28.480624, 128.982631) rotate(16.080759) translate(-28.480624, -128.982631) " x="21.4299206" y="122.003929" width="14.1014076" height="13.9574034"></rect>
            <path d="M105.777,68.82 L110.403,54.45 L123.707,58.796 L119.081,73.163 L105.777,68.82 Z M105.777,68.82" id="Shape" opacity="0.58" fill="#FFFFFF" sketch:type="MSShapeGroup"></path>
            <rect d="M91.5325663,75.0409775 L91.5325663,89.0383821 L106.631003,89.0383821 L106.631003,75.0409775 L91.5325663,75.0409775 Z M91.5325663,75.0409775" id="Rectangle" opacity="0.33" fill="#FFFFFF" sketch:type="MSShapeGroup" transform="translate(99.081785, 82.039680) rotate(106.080759) translate(-99.081785, -82.039680) " x="91.5325663" y="75.0409775" width="15.0984364" height="13.9974046"></rect>
            <rect d="M96.7725769,22.923086 L96.7725769,36.5491025 L112.785596,36.5491025 L112.785596,22.923086 L96.7725769,22.923086 Z M96.7725769,22.923086" id="Rectangle" opacity="0.28" fill="#F15D22" sketch:type="MSShapeGroup" transform="translate(104.779087, 29.736094) rotate(106.075254) translate(-104.779087, -29.736094) " x="96.7725769" y="22.923086" width="16.0130194" height="13.6260165"></rect>
            <rect d="M73.3413571,65.566979 L73.3413571,79.1894413 L89.3577248,79.1894413 L89.3577248,65.566979 L73.3413571,65.566979 Z M73.3413571,65.566979" id="Rectangle" opacity="0.28" fill="#F15D22" sketch:type="MSShapeGroup" transform="translate(81.349541, 72.378210) rotate(106.087852) translate(-81.349541, -72.378210) " x="73.3413571" y="65.566979" width="16.0163677" height="13.6224622"></rect>
            <rect d="M111.19327,80.7029788 L111.19327,94.4403758 L126.439711,94.4403758 L126.439711,80.7029788 L111.19327,80.7029788 Z M111.19327,80.7029788" id="Rectangle" opacity="0.32" fill="#775C25" sketch:type="MSShapeGroup" transform="translate(118.816491, 87.571677) rotate(106.080759) translate(-118.816491, -87.571677) " x="111.19327" y="80.7029788" width="15.2464407" height="13.7373971"></rect>
            <rect d="M87.4384487,47.1751958 L87.4384487,60.9096537 L102.684847,60.9096537 L102.684847,47.1751958 L87.4384487,47.1751958 Z M87.4384487,47.1751958" id="Rectangle" opacity="0.26" fill="#775C25" sketch:type="MSShapeGroup" transform="translate(95.061648, 54.042425) rotate(106.087852) translate(-95.061648, -54.042425) " x="87.4384487" y="47.1751958" width="15.2463981" height="13.7344578"></rect>
            <rect d="M86.5321358,101.011915 L86.5321358,114.635309 L102.544599,114.635309 L102.544599,101.011915 L86.5321358,101.011915 Z M86.5321358,101.011915" id="Rectangle" opacity="0.13" fill="#F15D22" sketch:type="MSShapeGroup" transform="translate(94.538367, 107.823612) rotate(106.080759) translate(-94.538367, -107.823612) " x="86.5321358" y="101.011915" width="16.0124628" height="13.6233938"></rect>
            <path d="M123.068,179.169 L108.698,175.025 L112.466,161.969 L126.829,166.11 L123.068,179.169 Z M123.068,179.169" id="Shape" opacity="0.28" fill="#F15D22" sketch:type="MSShapeGroup"></path>
            <rect d="M138.113245,130.462415 L138.113245,144.048879 L153.059655,144.048879 L153.059655,130.462415 L138.113245,130.462415 Z M138.113245,130.462415" id="Rectangle" opacity="0.28" fill="#F15D22" sketch:type="MSShapeGroup" transform="translate(145.586450, 137.255647) rotate(16.087852) translate(-145.586450, -137.255647) " x="138.113245" y="130.462415" width="14.94641" height="13.5864636"></rect>
            <rect d="M184.002187,109.418807 L184.002187,123.0062 L198.957619,123.0062 L198.957619,109.418807 L184.002187,109.418807 Z M184.002187,109.418807" id="Rectangle" opacity="0.13" fill="#F15D22" sketch:type="MSShapeGroup" transform="translate(191.479903, 116.212504) rotate(16.080759) translate(-191.479903, -116.212504) " x="184.002187" y="109.418807" width="14.9554323" height="13.5873927"></rect>
            <rect d="M160.317257,124.145005 L160.317257,137.845021 L174.553274,137.845021 L174.553274,124.145005 L160.317257,124.145005 Z M160.317257,124.145005" id="Rectangle" opacity="0.32" fill="#775C25" sketch:type="MSShapeGroup" transform="translate(167.435265, 130.995013) rotate(16.075254) translate(-167.435265, -130.995013) " x="160.317257" y="124.145005" width="14.2360172" height="13.7000166"></rect>
            <rect d="M166.390411,145.883786 L166.390411,159.47225 L181.339821,159.47225 L181.339821,145.883786 L166.390411,145.883786 Z M166.390411,145.883786" id="Rectangle" opacity="0.28" fill="#F15D22" sketch:type="MSShapeGroup" transform="translate(173.865116, 152.678018) rotate(16.087852) translate(-173.865116, -152.678018) " x="166.390411" y="145.883786" width="14.9494098" height="13.5884636"></rect>
            <rect d="M136.085314,154.793215 L136.085314,168.382608 L151.032746,168.382608 L151.032746,154.793215 L136.085314,154.793215 Z M136.085314,154.793215" id="Rectangle" opacity="0.13" fill="#F15D22" sketch:type="MSShapeGroup" transform="translate(143.559030, 161.587912) rotate(16.080759) translate(-143.559030, -161.587912) " x="136.085314" y="154.793215" width="14.947432" height="13.5893928"></rect>
            <rect d="M128.917764,180.807764 L128.917764,194.508224 L143.150202,194.508224 L143.150202,180.807764 L128.917764,180.807764 Z M128.917764,180.807764" id="Rectangle" opacity="0.32" fill="#775C25" sketch:type="MSShapeGroup" transform="translate(136.033983, 187.657994) rotate(16.087852) translate(-136.033983, -187.657994) " x="128.917764" y="180.807764" width="14.2324381" height="13.7004591"></rect>
            <rect d="M157.366071,172.584217 L157.366071,186.541234 L171.461088,186.541234 L171.461088,172.584217 L157.366071,172.584217 Z M157.366071,172.584217" id="Rectangle" opacity="0.58" fill="#FFFFFF" sketch:type="MSShapeGroup" transform="translate(164.413580, 179.562726) rotate(16.075254) translate(-164.413580, -179.562726) " x="157.366071" y="172.584217" width="14.0950171" height="13.9570169"></rect>
        </g>
    </g>
</svg>