<?xml version="1.0" encoding="utf-8"?>
<!-- Generator: Adobe Illustrator 15.0.0, SVG Export Plug-In  -->
<!DOCTYPE svg PUBLIC "-//W3C//DTD SVG 1.1//EN" "http://www.w3.org/Graphics/SVG/1.1/DTD/svg11.dtd" [
	<!ENTITY ns_flows "http://ns.adobe.com/Flows/1.0/">
]>
<svg version="1.1"
	 xmlns="http://www.w3.org/2000/svg" xmlns:xlink="http://www.w3.org/1999/xlink" xmlns:a="http://ns.adobe.com/AdobeSVGViewerExtensions/3.0/"
	 x="0px" y="0px" width="215px" height="211px" viewBox="-0.854 -0.404 215 211"
	 overflow="visible" enable-background="new -0.854 -0.404 215 211" xml:space="preserve">
<defs>
</defs>
<path fill="#FFC60B" d="M0,84.476c0,0,13.425,99.804,58.181,119.899c0,0,38.942,12.443,40.765-27.286c0,0,4.94-34.632-48.355-64.89
	L0,84.476z"/>
<path fill="#FFC60B" d="M213.876,99.549c0,0-90.65,11.877-106.962,62.369c0,0-9.587,44.084,26.833,47.554
	c0,0,31.905,6.851,57.119-53.036L213.876,99.549z"/>
<path fill="#FFC60B" d="M108.85,0c0,0-51.276,66.895-35.664,107.898c0,0,16.586,32.74,41.42,10.801c0,0,23.706-16.932,8.896-69.442
	L108.85,0z"/>
<rect x="66.222" y="185.911" transform="matrix(0.9608 0.2771 -0.2771 0.9608 56.2939 -12.8763)" opacity="0.28" fill="#F15D22" width="14.951" height="13.588"/>
<rect x="50.171" y="121.427" transform="matrix(0.9608 0.2772 -0.2772 0.9608 37.7977 -10.8529)" opacity="0.32" fill="#775C25" width="14.236" height="13.698"/>
<rect x="67.941" y="145.69" transform="matrix(0.9609 0.277 -0.277 0.9609 45.2171 -14.7968)" opacity="0.33" fill="#FFFFFF" width="14.097" height="13.96"/>
<rect x="43.695" y="142.7" transform="matrix(0.9608 0.2771 -0.2771 0.9608 43.4267 -8.3253)" opacity="0.28" fill="#F15D22" width="14.952" height="13.588"/>
<rect x="37.97" y="163.847" transform="matrix(0.9608 0.2771 -0.2771 0.9608 49.0946 -5.7855)" opacity="0.58" fill="#FFFFFF" width="14.098" height="13.953"/>
<rect x="61.846" y="165.531" transform="matrix(0.9609 0.2771 -0.2771 0.9609 50.4577 -12.4597)" opacity="0.13" fill="#F15D22" width="14.948" height="13.588"/>
<rect x="21.426" y="122" transform="matrix(0.9609 0.277 -0.277 0.9609 36.8446 -2.8408)" opacity="0.33" fill="#FFFFFF" width="14.101" height="13.957"/>
<polygon opacity="0.58" fill="#FFFFFF" points="105.777,68.82 110.403,54.45 123.707,58.796 119.081,73.163 "/>
<rect x="91.538" y="75.042" transform="matrix(-0.277 0.9609 -0.9609 -0.277 205.3616 9.5522)" opacity="0.33" fill="#FFFFFF" width="15.098" height="13.997"/>
<rect x="96.77" y="22.921" transform="matrix(-0.2769 0.9609 -0.9609 -0.2769 162.3631 -62.7103)" opacity="0.28" fill="#F15D22" width="16.013" height="13.626"/>
<rect x="73.339" y="65.572" transform="matrix(-0.2771 0.9608 -0.9608 -0.2771 173.437 14.277)" opacity="0.28" fill="#F15D22" width="16.017" height="13.623"/>
<rect x="111.199" y="80.704" transform="matrix(-0.277 0.9609 -0.9609 -0.277 235.8786 -2.3468)" opacity="0.32" fill="#775C25" width="15.246" height="13.737"/>
<rect x="87.432" y="47.174" transform="matrix(-0.2771 0.9608 -0.9608 -0.2771 173.3246 -22.312)" opacity="0.26" fill="#775C25" width="15.247" height="13.735"/>
<rect x="86.538" y="101.016" transform="matrix(-0.277 0.9609 -0.9609 -0.277 224.3385 46.8445)" opacity="0.13" fill="#F15D22" width="16.012" height="13.623"/>
<polygon opacity="0.28" fill="#F15D22" points="123.068,179.169 108.698,175.025 112.466,161.969 126.829,166.11 "/>
<rect x="138.12" y="130.467" transform="matrix(0.9608 0.2771 -0.2771 0.9608 43.7351 -34.9682)" opacity="0.28" fill="#F15D22" width="14.947" height="13.587"/>
<rect x="183.992" y="109.42" transform="matrix(0.9609 0.277 -0.277 0.9609 39.688 -48.4941)" opacity="0.13" fill="#F15D22" width="14.955" height="13.587"/>
<rect x="160.31" y="124.15" transform="matrix(0.9609 0.2769 -0.2769 0.9609 42.8276 -41.2437)" opacity="0.32" fill="#775C25" width="14.236" height="13.7"/>
<rect x="166.403" y="145.886" transform="matrix(0.9608 0.2771 -0.2771 0.9608 49.1109 -42.199)" opacity="0.28" fill="#F15D22" width="14.95" height="13.589"/>
<rect x="136.078" y="154.79" transform="matrix(0.9609 0.277 -0.277 0.9609 50.3793 -33.4424)" opacity="0.13" fill="#F15D22" width="14.947" height="13.589"/>
<rect x="128.918" y="180.817" transform="matrix(0.9608 0.2771 -0.2771 0.9608 57.3347 -30.3481)" opacity="0.32" fill="#775C25" width="14.233" height="13.701"/>
<rect x="157.36" y="172.587" transform="matrix(0.9609 0.2769 -0.2769 0.9609 56.1561 -38.5062)" opacity="0.58" fill="#FFFFFF" width="14.095" height="13.957"/>
</svg>
