<?xml version="1.0" encoding="utf-8"?>
<!-- Generator: Adobe Illustrator 15.0.0, SVG Export Plug-In  -->
<!DOCTYPE svg PUBLIC "-//W3C//DTD SVG 1.1//EN" "http://www.w3.org/Graphics/SVG/1.1/DTD/svg11.dtd" [
	<!ENTITY ns_flows "http://ns.adobe.com/Flows/1.0/">
]>
<svg version="1.1"
	 xmlns="http://www.w3.org/2000/svg" xmlns:xlink="http://www.w3.org/1999/xlink" xmlns:a="http://ns.adobe.com/AdobeSVGViewerExtensions/3.0/"
	 x="0px" y="0px" width="432px" height="432px" viewBox="-10.131 0 432 432"
	 overflow="visible" enable-background="new -10.131 0 432 432" xml:space="preserve">
<defs>
</defs>
<path display="none" fill="#FFC60B" d="M151.682,308.055c0,0,59.515,22.628,89.034,3.187c0,0,22.954-18.436,2.247-31.532
	c0,0-16.653-13.324-55.217,7.897L151.682,308.055z"/>
<path display="none" fill="#FFC60B" d="M242.227,188.385c0,0-21.446,51.966-4.837,80.739c0,0,15.863,22.708,27.967,5.144
	c0,0,12.219-13.852-5.771-51.041L242.227,188.385z"/>
<path display="none" fill="#FFC60B" d="M105.729,278.635c0,0,56.983,18.669,83.261-1.047c0,0,20.22-18.46,0.057-29.892
	c0,0-16.394-11.833-50.999,9.978L105.729,278.635z"/>
<path display="none" fill="#FFC60B" d="M194.197,157.63c0,0-22.657,53.573-4.251,80.508c0,0,17.515,20.979,30.45,2.405
	c0,0,13.103-14.91-6.906-50.047L194.197,157.63z"/>
<path display="none" fill="#FFC60B" d="M65.232,252.258c0,0,56.215,18.123,79.316-2.546c0,0,17.446-19.285-2.926-30.643
	c0,0-16.817-11.839-47.651,11.128L65.232,252.258z"/>
<path display="none" fill="#FFC60B" d="M143.854,133.409c0,0-22.776,56.835-1.31,81.523c0,0,20.232,18.821,33.74-1.543
	c0,0,13.844-16.705-9.736-49.438L143.854,133.409z"/>
<path display="none" fill="#FFC60B" d="M23.512,218.523c0,0,57.75,21.453,82.885,0.852c0,0,19.171-19.413-1.516-32.201
	c0,0-16.956-13.128-50.277,9.539L23.512,218.523z"/>
<path display="none" fill="#FFC60B" d="M90.645,104.915c0,0-17.806,52.711,3.047,73.364c0,0,19.424,15.467,30.68-3.804
	c0,0,11.753-16.004-11.446-43.734L90.645,104.915z"/>
<path display="none" fill="#FFC60B" d="M0,145.809c0,0,31.809,40.346,58.345,33.292c0,0,21.803-8.409,12.57-27.059
	c0,0-6.445-17.461-39.652-11.932L0,145.809z"/>
<path display="none" fill="#FFC60B" d="M256.083,297.44c0,0,84.066,70.885,102.251,137.715l9.498-2.301
	c0,0-19.719-64.854-108.486-145.009L256.083,297.44z"/>
<path display="none" fill="#FFC60B" d="M286.708,234.84c0,0,27.538,59.202,59.829,64.544c0,0,27.13,1.554,20.727-23.138
	c0,0-3.456-22.045-43.11-32.301L286.708,234.84z"/>
<path display="none" fill="#FFC60B" d="M414.356,197.729c0,0-46.684,33.3-45.533,68.717c0,0,3.516,29.597,23.895,21.235
	c0,0,18.609-4.999,20.421-48.703L414.356,197.729z"/>
<path display="none" fill="#FFC60B" d="M267.803,173.85c0,0,31.23,54.867,62.944,58.326c0,0,26.412,0.126,18.311-23.01
	c0,0-5.038-20.767-44.26-28.526L267.803,173.85z"/>
<path display="none" fill="#FFC60B" d="M404.022,141.761c0,0-49.6,23.713-52.407,56.869c0,0,0.17,28.091,21.141,23.488
	c0,0,18.849-1.756,25.491-42.154L404.022,141.761z"/>
<path display="none" fill="#FFC60B" d="M255.864,127.543c0,0,34.905,46.803,63.514,44.975c0,0,23.475-4.133,13.256-24.683
	c0,0-7.187-18.81-43.031-19.829L255.864,127.543z"/>
<path display="none" fill="#FFC60B" d="M383.08,85.005c0,0-46.762,26.484-47.042,58.637c0,0,2.262,27.058,22.429,21.09
	c0,0,18.315-3.074,21.803-42.489L383.08,85.005z"/>
<path display="none" fill="#FFC60B" d="M242.96,67.592c0,0,26.493,51.287,54.528,53.502c0,0,23.421-0.793,16.743-22.59
	c0,0-4.012-19.647-38.616-25.703L242.96,67.592z"/>
<path display="none" fill="#FFC60B" d="M361.318,34.483c0,0-46.644,23.893-45.712,54.294c0,0,3.327,25.646,23.655,20.496
	c0,0,18.544-2.456,20.605-39.645L361.318,34.483z"/>
<path display="none" fill="#FFC60B" d="M285.427,1c0,0-14.778,45.999,1.557,65.122c0,0,15.267,14.475,24.441-2.157
	c0,0,9.531-13.711-8.59-39.2L285.427,1z"/>
<path display="none" fill="#FFC60B" d="M370.318,292.946c0,0,42.107,130.783,39.344,140.552l10.096-3.146
	c0,0-37.054-131.822-43.396-139.293L370.318,292.946z"/>
<path fill="#FFFFFF" d="M153.792,307.055c0,0,59.514,22.627,89.034,3.186c0,0,22.953-18.436,2.246-31.531
	c0,0-16.652-13.324-55.216,7.896L153.792,307.055z"/>
<path fill="#FFFFFF" d="M244.336,187.385c0,0-21.445,51.965-4.836,80.738c0,0,15.863,22.709,27.967,5.145
	c0,0,12.219-13.852-5.771-51.041L244.336,187.385z"/>
<path fill="#FFFFFF" d="M107.838,277.635c0,0,56.984,18.668,83.262-1.047c0,0,20.22-18.461,0.057-29.893
	c0,0-16.394-11.832-50.998,9.979L107.838,277.635z"/>
<path fill="#FFFFFF" d="M196.307,156.63c0,0-22.656,53.573-4.25,80.508c0,0,17.513,20.979,30.449,2.404
	c0,0,13.104-14.909-6.906-50.046L196.307,156.63z"/>
<path fill="#FFFFFF" d="M67.342,251.258c0,0,56.215,18.123,79.316-2.547c0,0,17.445-19.284-2.926-30.642
	c0,0-16.816-11.839-47.65,11.128L67.342,251.258z"/>
<path fill="#FFFFFF" d="M145.965,132.409c0,0-22.776,56.835-1.311,81.523c0,0,20.232,18.821,33.74-1.543
	c0,0,13.844-16.705-9.735-49.438L145.965,132.409z"/>
<path fill="#FFFFFF" d="M25.623,217.523c0,0,57.749,21.453,82.885,0.852c0,0,19.171-19.413-1.516-32.201
	c0,0-16.956-13.128-50.277,9.539L25.623,217.523z"/>
<path fill="#FFFFFF" d="M92.755,103.915c0,0-17.806,52.711,3.047,73.364c0,0,19.425,15.467,30.681-3.804
	c0,0,11.753-16.004-11.446-43.734L92.755,103.915z"/>
<path fill="#FFFFFF" d="M2.11,144.809c0,0,31.809,40.346,58.346,33.292c0,0,21.803-8.409,12.57-27.059
	c0,0-6.445-17.461-39.652-11.932L2.11,144.809z"/>
<path fill="#FFFFFF" d="M288.818,233.84c0,0,27.537,59.201,59.83,64.543c0,0,27.129,1.555,20.727-23.137
	c0,0-3.457-22.045-43.111-32.301L288.818,233.84z"/>
<path fill="#FFFFFF" d="M416.467,196.729c0,0-46.684,33.3-45.533,68.716c0,0,3.516,29.598,23.895,21.236c0,0,18.609-5,20.422-48.703
	L416.467,196.729z"/>
<path fill="#FFFFFF" d="M269.912,172.85c0,0,31.23,54.867,62.945,58.326c0,0,26.412,0.126,18.311-23.01
	c0,0-5.039-20.767-44.26-28.526L269.912,172.85z"/>
<path fill="#FFFFFF" d="M406.133,140.761c0,0-49.6,23.713-52.406,56.869c0,0,0.17,28.091,21.141,23.488
	c0,0,18.848-1.756,25.49-42.154L406.133,140.761z"/>
<path fill="#FFFFFF" d="M257.975,126.543c0,0,34.904,46.803,63.514,44.975c0,0,23.475-4.133,13.256-24.683
	c0,0-7.188-18.81-43.031-19.829L257.975,126.543z"/>
<path fill="#FFFFFF" d="M385.191,84.005c0,0-46.764,26.484-47.043,58.637c0,0,2.262,27.058,22.43,21.09
	c0,0,18.314-3.074,21.803-42.489L385.191,84.005z"/>
<path fill="#FFFFFF" d="M245.07,66.592c0,0,26.492,51.287,54.527,53.502c0,0,23.422-0.793,16.744-22.59
	c0,0-4.012-19.647-38.617-25.703L245.07,66.592z"/>
<path fill="#FFFFFF" d="M363.43,33.483c0,0-46.645,23.893-45.713,54.294c0,0,3.326,25.646,23.654,20.496
	c0,0,18.545-2.456,20.607-39.645L363.43,33.483z"/>
<path fill="#FFFFFF" d="M287.537,0c0,0-14.779,45.999,1.557,65.122c0,0,15.266,14.475,24.441-2.157c0,0,9.531-13.711-8.59-39.2
	L287.537,0z"/>
<path fill="#FFFFFF" d="M422.024,428.359c-5.538-19.595-36.776-129.498-42.552-136.301l-6.043,1.887
	c0,0,37.25,115.701,39.366,137.555h9.122C421.945,430.453,421.979,429.406,422.024,428.359z"/>
<linearGradient id="SVGID_1_" gradientUnits="userSpaceOnUse" x1="180.792" y1="296.3535" x2="280.7275" y2="296.3535">
	<stop  offset="0" style="stop-color:#000000"/>
	<stop  offset="0.0896" style="stop-color:#000000;stop-opacity:0.9104"/>
	<stop  offset="1" style="stop-color:#000000;stop-opacity:0"/>
</linearGradient>
<path fill="url(#SVGID_1_)" d="M153.793,307.055c0,0,59.515,22.627,89.034,3.186c0,0,22.953-18.436,2.246-31.531
	c0,0-16.652-13.324-55.217,7.896L153.793,307.055z"/>
<linearGradient id="SVGID_2_" gradientUnits="userSpaceOnUse" x1="233.1934" y1="233.6582" x2="271.5215" y2="233.6582">
	<stop  offset="0" style="stop-color:#000000"/>
	<stop  offset="0.0896" style="stop-color:#000000;stop-opacity:0.9104"/>
	<stop  offset="1" style="stop-color:#000000;stop-opacity:0"/>
</linearGradient>
<path fill="url(#SVGID_2_)" d="M244.337,187.385c0,0-21.445,51.965-4.836,80.738c0,0,15.863,22.709,27.967,5.145
	c0,0,12.219-13.852-5.771-51.041L244.337,187.385z"/>
<linearGradient id="SVGID_3_" gradientUnits="userSpaceOnUse" x1="134.8379" y1="264.5605" x2="227.1035" y2="264.5605">
	<stop  offset="0" style="stop-color:#000000"/>
	<stop  offset="0.0896" style="stop-color:#000000;stop-opacity:0.9104"/>
	<stop  offset="1" style="stop-color:#000000;stop-opacity:0"/>
</linearGradient>
<path fill="url(#SVGID_3_)" d="M107.839,277.635c0,0,56.984,18.668,83.262-1.047c0,0,20.221-18.461,0.057-29.893
	c0,0-16.394-11.832-50.998,9.979L107.839,277.635z"/>
<linearGradient id="SVGID_4_" gradientUnits="userSpaceOnUse" x1="193.8491" y1="201.9238" x2="235.7188" y2="201.9238">
	<stop  offset="0" style="stop-color:#000000"/>
	<stop  offset="0.0896" style="stop-color:#000000;stop-opacity:0.9104"/>
	<stop  offset="1" style="stop-color:#000000;stop-opacity:0"/>
</linearGradient>
<path fill="url(#SVGID_4_)" d="M196.308,156.63c0,0-22.656,53.573-4.25,80.508c0,0,17.514,20.979,30.449,2.404
	c0,0,13.104-14.909-6.906-50.046L196.308,156.63z"/>
<linearGradient id="SVGID_5_" gradientUnits="userSpaceOnUse" x1="91.3418" y1="236.8125" x2="177.6128" y2="236.8125">
	<stop  offset="0" style="stop-color:#000000"/>
	<stop  offset="0.0896" style="stop-color:#000000;stop-opacity:0.9104"/>
	<stop  offset="1" style="stop-color:#000000;stop-opacity:0"/>
</linearGradient>
<path fill="url(#SVGID_5_)" d="M67.343,251.258c0,0,56.215,18.123,79.316-2.547c0,0,17.445-19.284-2.926-30.642
	c0,0-16.816-11.839-47.65,11.128L67.343,251.258z"/>
<linearGradient id="SVGID_6_" gradientUnits="userSpaceOnUse" x1="135.4434" y1="177.1338" x2="182.4331" y2="177.1338">
	<stop  offset="0" style="stop-color:#000000"/>
	<stop  offset="0.0896" style="stop-color:#000000;stop-opacity:0.9104"/>
	<stop  offset="1" style="stop-color:#000000;stop-opacity:0"/>
</linearGradient>
<path fill="url(#SVGID_6_)" d="M145.966,132.409c0,0-22.776,56.835-1.311,81.523c0,0,20.232,18.821,33.74-1.543
	c0,0,13.844-16.705-9.735-49.438L145.966,132.409z"/>
<linearGradient id="SVGID_7_" gradientUnits="userSpaceOnUse" x1="51.1211" y1="204.854" x2="142.0942" y2="204.854">
	<stop  offset="0" style="stop-color:#000000"/>
	<stop  offset="0.0896" style="stop-color:#000000;stop-opacity:0.9104"/>
	<stop  offset="1" style="stop-color:#000000;stop-opacity:0"/>
</linearGradient>
<path fill="url(#SVGID_7_)" d="M25.623,217.523c0,0,57.749,21.453,82.885,0.852c0,0,19.171-19.413-1.516-32.201
	c0,0-16.956-13.128-50.277,9.539L25.623,217.523z"/>
<linearGradient id="SVGID_8_" gradientUnits="userSpaceOnUse" x1="88.6743" y1="143.5332" x2="142.9445" y2="143.5332">
	<stop  offset="0" style="stop-color:#000000"/>
	<stop  offset="0.0896" style="stop-color:#000000;stop-opacity:0.9104"/>
	<stop  offset="1" style="stop-color:#000000;stop-opacity:0"/>
</linearGradient>
<path fill="url(#SVGID_8_)" d="M92.756,103.915c0,0-17.806,52.711,3.047,73.364c0,0,19.425,15.467,30.681-3.804
	c0,0,11.753-16.004-11.446-43.734L92.756,103.915z"/>
<linearGradient id="SVGID_9_" gradientUnits="userSpaceOnUse" x1="36.4346" y1="159.6899" x2="109.2836" y2="152.5777">
	<stop  offset="0" style="stop-color:#000000"/>
	<stop  offset="0.0896" style="stop-color:#000000;stop-opacity:0.9104"/>
	<stop  offset="1" style="stop-color:#000000;stop-opacity:0"/>
</linearGradient>
<path fill="url(#SVGID_9_)" d="M2.11,144.809c0,0,31.809,40.346,58.346,33.292c0,0,21.803-8.409,12.57-27.059
	c0,0-6.445-17.461-39.652-11.932L2.11,144.809z"/>
<path fill="#FFFFFF" d="M401.869,431.5h10.261l1.722-0.708c0,0-30.75-67.404-147.346-144.204l-3.731,9.767
	c0,0,104.005,62.852,138.886,135.155C401.73,431.508,401.797,431.5,401.869,431.5z"/>
<linearGradient id="SVGID_10_" gradientUnits="userSpaceOnUse" x1="306.0879" y1="359.1426" x2="434.3281" y2="359.1426" gradientTransform="matrix(0.989 -0.1514 0.1571 0.9968 -52.5734 52.4037)">
	<stop  offset="0" style="stop-color:#000000"/>
	<stop  offset="0.0896" style="stop-color:#000000;stop-opacity:0.9104"/>
	<stop  offset="1" style="stop-color:#000000;stop-opacity:0"/>
</linearGradient>
<path fill="url(#SVGID_10_)" d="M401.869,431.5h10.261l1.722-0.708c0,0-30.75-67.404-147.346-144.204l-3.731,9.767
	c0,0,104.005,62.852,138.886,135.155C401.73,431.508,401.797,431.5,401.869,431.5z"/>
<linearGradient id="SVGID_11_" gradientUnits="userSpaceOnUse" x1="308.3184" y1="266.1211" x2="389.8516" y2="266.1211">
	<stop  offset="0" style="stop-color:#000000"/>
	<stop  offset="0.0896" style="stop-color:#000000;stop-opacity:0.9104"/>
	<stop  offset="1" style="stop-color:#000000;stop-opacity:0"/>
</linearGradient>
<path fill="url(#SVGID_11_)" d="M288.819,233.84c0,0,27.537,59.201,59.829,64.543c0,0,27.129,1.555,20.727-23.137
	c0,0-3.457-22.045-43.11-32.301L288.819,233.84z"/>
<linearGradient id="SVGID_12_" gradientUnits="userSpaceOnUse" x1="381.4131" y1="242.4492" x2="426.9668" y2="242.4492">
	<stop  offset="0" style="stop-color:#000000"/>
	<stop  offset="0.0896" style="stop-color:#000000;stop-opacity:0.9104"/>
	<stop  offset="1" style="stop-color:#000000;stop-opacity:0"/>
</linearGradient>
<path fill="url(#SVGID_12_)" d="M416.467,196.729c0,0-46.684,33.3-45.533,68.716c0,0,3.516,29.598,23.895,21.236
	c0,0,18.609-5,20.422-48.703L416.467,196.729z"/>
<linearGradient id="SVGID_13_" gradientUnits="userSpaceOnUse" x1="289.4121" y1="202.0127" x2="372.2109" y2="202.0127">
	<stop  offset="0" style="stop-color:#000000"/>
	<stop  offset="0.0896" style="stop-color:#000000;stop-opacity:0.9104"/>
	<stop  offset="1" style="stop-color:#000000;stop-opacity:0"/>
</linearGradient>
<path fill="url(#SVGID_13_)" d="M269.913,172.85c0,0,31.23,54.867,62.945,58.326c0,0,26.411,0.126,18.31-23.01
	c0,0-5.038-20.767-44.259-28.526L269.913,172.85z"/>
<linearGradient id="SVGID_14_" gradientUnits="userSpaceOnUse" x1="359.7266" y1="181.1943" x2="412.1328" y2="181.1943">
	<stop  offset="0" style="stop-color:#000000"/>
	<stop  offset="0.0896" style="stop-color:#000000;stop-opacity:0.9104"/>
	<stop  offset="1" style="stop-color:#000000;stop-opacity:0"/>
</linearGradient>
<path fill="url(#SVGID_14_)" d="M406.133,140.761c0,0-49.6,23.713-52.406,56.869c0,0,0.17,28.091,21.141,23.488
	c0,0,18.848-1.756,25.49-42.154L406.133,140.761z"/>
<linearGradient id="SVGID_15_" gradientUnits="userSpaceOnUse" x1="275.9746" y1="149.0566" x2="355.3213" y2="149.0566">
	<stop  offset="0" style="stop-color:#000000"/>
	<stop  offset="0.0896" style="stop-color:#000000;stop-opacity:0.9104"/>
	<stop  offset="1" style="stop-color:#000000;stop-opacity:0"/>
</linearGradient>
<path fill="url(#SVGID_15_)" d="M257.976,126.543c0,0,34.904,46.803,63.514,44.975c0,0,23.475-4.133,13.256-24.683
	c0,0-7.188-18.81-43.031-19.829L257.976,126.543z"/>
<linearGradient id="SVGID_16_" gradientUnits="userSpaceOnUse" x1="347.1494" y1="124.2983" x2="394.1914" y2="124.2983">
	<stop  offset="0" style="stop-color:#000000"/>
	<stop  offset="0.0896" style="stop-color:#000000;stop-opacity:0.9104"/>
	<stop  offset="1" style="stop-color:#000000;stop-opacity:0"/>
</linearGradient>
<path fill="url(#SVGID_16_)" d="M385.191,84.005c0,0-46.763,26.484-47.042,58.637c0,0,2.262,27.058,22.429,21.09
	c0,0,18.314-3.074,21.803-42.489L385.191,84.005z"/>
<linearGradient id="SVGID_17_" gradientUnits="userSpaceOnUse" x1="269.0703" y1="93.3428" x2="341.5391" y2="93.3428">
	<stop  offset="0" style="stop-color:#000000"/>
	<stop  offset="0.0896" style="stop-color:#000000;stop-opacity:0.9104"/>
	<stop  offset="1" style="stop-color:#000000;stop-opacity:0"/>
</linearGradient>
<path fill="url(#SVGID_17_)" d="M245.071,66.592c0,0,26.492,51.287,54.527,53.502c0,0,23.422-0.793,16.744-22.59
	c0,0-4.012-19.647-38.617-25.703L245.071,66.592z"/>
<linearGradient id="SVGID_18_" gradientUnits="userSpaceOnUse" x1="334.2031" y1="71.2202" x2="379.9287" y2="71.2202">
	<stop  offset="0" style="stop-color:#000000"/>
	<stop  offset="0.0896" style="stop-color:#000000;stop-opacity:0.9104"/>
	<stop  offset="1" style="stop-color:#000000;stop-opacity:0"/>
</linearGradient>
<path fill="url(#SVGID_18_)" d="M363.43,33.483c0,0-46.644,23.893-45.712,54.294c0,0,3.326,25.646,23.654,20.496
	c0,0,18.544-2.456,20.606-39.645L363.43,33.483z"/>
<linearGradient id="SVGID_19_" gradientUnits="userSpaceOnUse" x1="288.9072" y1="35.4805" x2="323.541" y2="35.4805">
	<stop  offset="0" style="stop-color:#000000"/>
	<stop  offset="0.0896" style="stop-color:#000000;stop-opacity:0.9104"/>
	<stop  offset="1" style="stop-color:#000000;stop-opacity:0"/>
</linearGradient>
<path fill="url(#SVGID_19_)" d="M287.538,0c0,0-14.779,45.999,1.557,65.122c0,0,15.266,14.475,24.441-2.157
	c0,0,9.531-13.711-8.59-39.2L287.538,0z"/>
<linearGradient id="SVGID_20_" gradientUnits="userSpaceOnUse" x1="384.1055" y1="361.7656" x2="434.5508" y2="361.7656">
	<stop  offset="0" style="stop-color:#000000"/>
	<stop  offset="0.0896" style="stop-color:#000000;stop-opacity:0.9104"/>
	<stop  offset="1" style="stop-color:#000000;stop-opacity:0"/>
</linearGradient>
<path fill="url(#SVGID_20_)" d="M422.049,427.828c-7.549-26.628-36.863-129.168-42.49-135.796l-6.166,1.925
	c0,0,35.294,109.626,39.789,137.543h8.736C421.95,430.275,421.992,429.052,422.049,427.828z"/>
<rect x="29.597" y="147.686" transform="matrix(0.9934 -0.115 0.115 0.9934 -17.2805 4.9405)" opacity="0.58" fill="#FFFFFF" width="9.149" height="9.058"/>
<rect x="43.954" y="156.53" transform="matrix(0.9934 -0.115 0.115 0.9934 -18.1996 6.6493)" opacity="0.33" fill="#FFFFFF" width="9.15" height="9.058"/>
<rect x="15.358" y="142.987" transform="matrix(0.9934 -0.1151 0.1151 0.9934 -16.8274 3.3049)" opacity="0.28" fill="#6C6C6C" width="9.704" height="8.82"/>
<rect x="42.516" y="169.635" transform="matrix(0.9934 -0.115 0.115 0.9934 -19.7042 6.6034)" opacity="0.28" fill="#6C6C6C" width="9.705" height="8.82"/>
<rect x="60.414" y="194.396" transform="matrix(0.9934 -0.1149 0.1149 0.9934 -22.3181 8.6631)" opacity="0.58" fill="#FFFFFF" width="7.157" height="7.084"/>
<rect x="93.112" y="205.302" transform="matrix(0.9934 -0.115 0.115 0.9934 -23.4449 12.5935)" opacity="0.32" fill="#232323" width="8.535" height="8.214"/>
<rect x="39.104" y="210.574" transform="matrix(0.9934 -0.1151 0.1151 0.9934 -24.4247 6.4126)" opacity="0.58" fill="#FFFFFF" width="8.453" height="8.368"/>
<rect x="51.422" y="206.035" transform="matrix(0.9934 -0.115 0.115 0.9934 -23.7887 7.8218)" opacity="0.13" fill="#6C6C6C" width="8.964" height="8.147"/>
<rect x="73.124" y="190.2" transform="matrix(0.9934 -0.115 0.115 0.9934 -21.8354 10.1912)" opacity="0.32" fill="#232323" width="8.537" height="8.215"/>
<rect x="75.835" y="202.562" transform="matrix(0.9934 -0.115 0.115 0.9934 -23.2462 10.5795)" opacity="0.33" fill="#FFFFFF" width="8.453" height="8.369"/>
<rect x="76.935" y="214.389" transform="matrix(0.9934 -0.1149 0.1149 0.9934 -24.5663 10.8039)" opacity="0.28" fill="#6C6C6C" width="8.965" height="8.147"/>
<rect x="62.432" y="213.518" transform="matrix(0.9934 -0.1151 0.1151 0.9934 -24.6058 9.1154)" opacity="0.58" fill="#FFFFFF" width="8.454" height="8.369"/>
<rect x="84.787" y="192.993" transform="matrix(0.9934 -0.115 0.115 0.9934 -22.0678 11.5718)" opacity="0.13" fill="#6C6C6C" width="8.964" height="8.148"/>
<rect x="95.552" y="189.204" transform="matrix(0.9934 -0.115 0.115 0.9934 -21.5791 12.7585)" opacity="0.58" fill="#FFFFFF" width="8.453" height="8.369"/>
<rect x="132.252" y="239.941" transform="matrix(0.9934 -0.1149 0.1149 0.9934 -27.1359 17.3016)" opacity="0.32" fill="#232323" width="8.534" height="8.214"/>
<rect x="78.241" y="245.213" transform="matrix(0.9934 -0.1151 0.1151 0.9934 -28.1458 11.1442)" opacity="0.58" fill="#FFFFFF" width="8.454" height="8.366"/>
<rect x="90.56" y="240.672" transform="matrix(0.9934 -0.115 0.115 0.9934 -27.5245 12.5585)" opacity="0.13" fill="#6C6C6C" width="8.964" height="8.148"/>
<rect x="112.262" y="224.837" transform="matrix(0.9933 -0.1152 0.1152 0.9933 -25.5961 14.947)" opacity="0.32" fill="#232323" width="8.537" height="8.215"/>
<rect x="114.973" y="237.199" transform="matrix(0.9933 -0.1152 0.1152 0.9933 -27.0045 15.3329)" opacity="0.33" fill="#FFFFFF" width="8.455" height="8.37"/>
<rect x="116.075" y="249.027" transform="matrix(0.9934 -0.1149 0.1149 0.9934 -28.2906 15.5331)" opacity="0.28" fill="#6C6C6C" width="8.964" height="8.148"/>
<rect x="101.571" y="248.156" transform="matrix(0.9934 -0.1151 0.1151 0.9934 -28.3313 13.8487)" opacity="0.58" fill="#FFFFFF" width="8.454" height="8.37"/>
<rect x="123.927" y="227.632" transform="matrix(0.9934 -0.1149 0.1149 0.9934 -25.7822 16.2957)" opacity="0.13" fill="#6C6C6C" width="8.963" height="8.148"/>
<rect x="135.905" y="223.702" transform="matrix(0.9934 -0.1149 0.1149 0.9934 -25.2654 17.6178)" opacity="0.58" fill="#FFFFFF" width="8.453" height="8.368"/>
<rect x="176.753" y="264.9" transform="matrix(0.9934 -0.1149 0.1149 0.9934 -29.7073 22.5785)" opacity="0.32" fill="#232323" width="8.534" height="8.215"/>
<rect x="122.744" y="270.174" transform="matrix(0.9933 -0.1152 0.1152 0.9933 -30.7568 16.4512)" opacity="0.58" fill="#FFFFFF" width="8.453" height="8.366"/>
<rect x="135.062" y="265.637" transform="matrix(0.9934 -0.1148 0.1148 0.9934 -30.0447 17.806)" opacity="0.13" fill="#6C6C6C" width="8.965" height="8.145"/>
<rect x="156.764" y="249.799" transform="matrix(0.9934 -0.115 0.115 0.9934 -28.1207 20.195)" opacity="0.32" fill="#232323" width="8.538" height="8.216"/>
<rect x="159.476" y="262.161" transform="matrix(0.9933 -0.1152 0.1152 0.9933 -29.5895 20.6289)" opacity="0.33" fill="#FFFFFF" width="8.453" height="8.369"/>
<rect x="160.577" y="273.989" transform="matrix(0.9934 -0.1151 0.1151 0.9934 -30.8957 20.8368)" opacity="0.28" fill="#6C6C6C" width="8.963" height="8.149"/>
<rect x="146.073" y="273.119" transform="matrix(0.9934 -0.115 0.115 0.9934 -30.8817 19.1163)" opacity="0.58" fill="#FFFFFF" width="8.453" height="8.369"/>
<rect x="168.428" y="252.593" transform="matrix(0.9934 -0.115 0.115 0.9934 -28.376 21.5931)" opacity="0.13" fill="#6C6C6C" width="8.965" height="8.149"/>
<rect x="180.69" y="251.093" transform="matrix(0.9934 -0.115 0.115 0.9934 -28.1216 22.9512)" opacity="0.58" fill="#FFFFFF" width="8.452" height="8.367"/>
<rect x="89.413" y="122.068" transform="matrix(0.9847 -0.174 0.174 0.9847 -20.5094 18.1956)" opacity="0.32" fill="#232323" width="8.164" height="7.945"/>
<rect x="99.572" y="131.12" transform="matrix(0.9847 -0.1742 0.1742 0.9847 -21.961 20.1154)" opacity="0.33" fill="#FFFFFF" width="8.087" height="8.095"/>
<rect x="87.416" y="135.424" transform="matrix(0.9847 -0.1741 0.1741 0.9847 -22.8619 18.0933)" opacity="0.28" fill="#6C6C6C" width="8.577" height="7.88"/>
<rect x="100.759" y="155.677" transform="matrix(0.9847 -0.174 0.174 0.9847 -26.1955 20.6742)" opacity="0.58" fill="#FFFFFF" width="8.087" height="8.093"/>
<rect x="111.428" y="145.938" transform="matrix(0.9847 -0.174 0.174 0.9847 -24.3114 22.4185)" opacity="0.13" fill="#6C6C6C" width="8.577" height="7.88"/>
<rect x="88.552" y="150.788" transform="matrix(0.9847 -0.1741 0.1741 0.9847 -25.5261 18.4887)" opacity="0.32" fill="#232323" width="8.165" height="7.944"/>
<rect x="102.889" y="169.285" transform="matrix(0.9847 -0.174 0.174 0.9847 -28.5136 21.298)" opacity="0.28" fill="#6C6C6C" width="8.576" height="7.879"/>
<rect x="42.29" y="143.445" transform="matrix(0.9934 -0.115 0.115 0.9934 -16.6907 6.3732)" opacity="0.32" fill="#232323" width="9.238" height="8.891"/>
<rect x="33.33" y="160.942" transform="matrix(0.9934 -0.115 0.115 0.9934 -18.7606 5.4588)" opacity="0.26" fill="#232323" width="9.238" height="8.891"/>
<rect x="141.187" y="148.885" transform="matrix(0.9934 -0.115 0.115 0.9934 -16.6294 17.7425)" opacity="0.32" fill="#232323" width="8.534" height="8.215"/>
<rect x="151.205" y="158.842" transform="matrix(0.9934 -0.115 0.115 0.9934 -17.7098 18.9476)" opacity="0.33" fill="#FFFFFF" width="8.453" height="8.369"/>
<rect x="138.255" y="162.565" transform="matrix(0.9934 -0.115 0.115 0.9934 -18.2225 17.5267)" opacity="0.28" fill="#6C6C6C" width="8.964" height="8.149"/>
<rect x="140.041" y="175.676" transform="matrix(0.9934 -0.115 0.115 0.9934 -19.7188 17.7759)" opacity="0.58" fill="#FFFFFF" width="8.453" height="8.369"/>
<rect x="152.359" y="171.138" transform="matrix(0.9934 -0.115 0.115 0.9934 -19.1085 19.1988)" opacity="0.13" fill="#6C6C6C" width="8.963" height="8.147"/>
<rect x="146.078" y="191.136" transform="matrix(0.9934 -0.115 0.115 0.9934 -21.4559 18.5853)" opacity="0.32" fill="#232323" width="8.534" height="8.215"/>
<rect x="163.961" y="193.409" transform="matrix(0.9934 -0.115 0.115 0.9934 -21.5905 20.6784)" opacity="0.28" fill="#6C6C6C" width="8.964" height="8.148"/>
<rect x="156.8" y="207.175" transform="matrix(0.9934 -0.1149 0.1149 0.9934 -23.2162 19.8994)" opacity="0.33" fill="#FFFFFF" width="8.453" height="8.369"/>
<rect x="191.859" y="176.254" transform="matrix(0.9934 -0.1151 0.1151 0.9934 -19.4605 23.7788)" opacity="0.32" fill="#232323" width="8.533" height="8.215"/>
<rect x="200.943" y="188.779" transform="matrix(0.9934 -0.115 0.115 0.9934 -20.8298 24.875)" opacity="0.33" fill="#FFFFFF" width="8.454" height="8.37"/>
<rect x="187.993" y="192.501" transform="matrix(0.9934 -0.115 0.115 0.9934 -21.3328 23.4434)" opacity="0.28" fill="#6C6C6C" width="8.966" height="8.148"/>
<rect x="186.137" y="206.035" transform="matrix(0.9934 -0.115 0.115 0.9934 -22.9125 23.2868)" opacity="0.58" fill="#FFFFFF" width="8.454" height="8.368"/>
<rect x="202.239" y="202.289" transform="matrix(0.9934 -0.1151 0.1151 0.9934 -22.3709 25.1554)" opacity="0.13" fill="#6C6C6C" width="8.963" height="8.148"/>
<rect x="200.674" y="220.511" transform="matrix(0.9934 -0.115 0.115 0.9934 -24.4718 25.0589)" opacity="0.32" fill="#232323" width="8.534" height="8.214"/>
<rect x="212.716" y="214.847" transform="matrix(0.9934 -0.1149 0.1149 0.9934 -23.7229 26.4152)" opacity="0.28" fill="#6C6C6C" width="8.964" height="8.147"/>
<rect x="240.266" y="201.487" transform="matrix(0.9929 -0.1187 0.1187 0.9929 -22.6717 30.4743)" opacity="0.32" fill="#232323" width="8.533" height="8.214"/>
<rect x="246.301" y="219.085" transform="matrix(0.9929 -0.1188 0.1188 0.9929 -24.702 31.2886)" opacity="0.33" fill="#FFFFFF" width="7.596" height="7.521"/>
<rect x="235.534" y="226.391" transform="matrix(0.9929 -0.1187 0.1187 0.9929 -25.667 30.1293)" opacity="0.28" fill="#6C6C6C" width="8.965" height="8.15"/>
<rect x="237.368" y="239.499" transform="matrix(0.9929 -0.1186 0.1186 0.9929 -27.1964 30.374)" opacity="0.58" fill="#FFFFFF" width="8.456" height="8.369"/>
<rect x="248.461" y="235.06" transform="matrix(0.9929 -0.1185 0.1185 0.9929 -26.5624 31.6685)" opacity="0.13" fill="#6C6C6C" width="8.964" height="8.147"/>
<rect x="242.858" y="255.007" transform="matrix(0.9929 -0.1189 0.1189 0.9929 -29.0479 31.2119)" opacity="0.32" fill="#232323" width="8.536" height="8.215"/>
<rect x="259.243" y="249.864" transform="matrix(0.9978 -0.0661 0.0661 0.9978 -16.2092 17.9883)" opacity="0.28" fill="#6C6C6C" width="9.193" height="8.356"/>
<rect x="228.032" y="299.259" transform="matrix(0.9934 -0.115 0.115 0.9934 -33.343 28.7242)" opacity="0.32" fill="#232323" width="8.535" height="8.215"/>
<rect x="170.097" y="302.524" transform="matrix(0.9934 -0.1149 0.1149 0.9934 -34.0952 22.0677)" opacity="0.58" fill="#FFFFFF" width="8.454" height="8.369"/>
<rect x="182.417" y="297.984" transform="matrix(0.9933 -0.1152 0.1152 0.9933 -33.5398 23.5314)" opacity="0.13" fill="#6C6C6C" width="8.964" height="8.149"/>
<rect x="210.978" y="278.921" transform="matrix(0.9934 -0.1148 0.1148 0.9934 -31.0782 26.5907)" opacity="0.32" fill="#232323" width="8.538" height="8.217"/>
<rect x="208.044" y="294.372" transform="matrix(0.9934 -0.1151 0.1151 0.9934 -32.9417 26.4062)" opacity="0.33" fill="#FFFFFF" width="8.454" height="8.37"/>
<rect x="210.227" y="306.836" transform="matrix(0.9981 -0.0623 0.0623 0.9981 -18.9724 13.9983)" opacity="0.28" fill="#6C6C6C" width="9.195" height="8.359"/>
<rect x="193.229" y="291.071" transform="matrix(0.998 -0.0625 0.0625 0.998 -18.0782 12.9284)" opacity="0.58" fill="#FFFFFF" width="8.67" height="8.585"/>
<rect x="219.718" y="288.42" transform="matrix(0.9934 -0.1151 0.1151 0.9934 -32.1683 27.7417)" opacity="0.13" fill="#6C6C6C" width="8.962" height="8.149"/>
<rect x="230.189" y="280.736" transform="matrix(0.9934 -0.1149 0.1149 0.9934 -31.1893 28.8262)" opacity="0.58" fill="#FFFFFF" width="8.455" height="8.367"/>
<rect x="241.241" y="287.076" transform="matrix(0.9934 -0.1151 0.1151 0.9934 -31.8673 30.206)" opacity="0.28" fill="#6C6C6C" width="8.963" height="8.147"/>
<rect x="199.304" y="281.849" transform="matrix(0.9934 -0.115 0.115 0.9934 -31.5537 25.313)" opacity="0.33" fill="#FFFFFF" width="8.455" height="8.37"/>
<rect x="211.932" y="202.25" transform="matrix(0.9934 -0.115 0.115 0.9934 -22.3085 26.2313)" opacity="0.58" fill="#FFFFFF" width="8.453" height="8.37"/>
<rect x="59.141" y="153.048" transform="matrix(0.9934 -0.1151 0.1151 0.9934 -17.696 8.4109)" opacity="0.13" fill="#6C6C6C" width="9.703" height="8.819"/>
<polygon opacity="0.58" fill="#FFFFFF" points="288.664,308.054 282.939,309.627 281.374,303.988 287.1,302.416 "/>
<polygon opacity="0.32" fill="#232323" points="272.425,296.733 266.674,298.313 265.146,292.805 270.896,291.223 "/>
<polygon opacity="0.28" fill="#6C6C6C" points="303.517,317.179 297.621,318.798 296.144,313.469 302.038,311.848 "/>
<polygon opacity="0.33" fill="#FFFFFF" points="321.401,330.3 315.438,331.94 313.806,326.063 319.772,324.426 "/>
<polygon opacity="0.13" fill="#6C6C6C" points="279.583,300.389 273.385,302.093 271.828,296.484 278.028,294.781 "/>
<polygon opacity="0.13" fill="#6C6C6C" points="333.869,342.164 327.976,343.78 326.493,338.451 332.389,336.833 "/>
<polygon opacity="0.32" fill="#232323" points="341.307,349.37 335.551,350.951 334.023,345.44 339.777,343.86 "/>
<rect x="398.861" y="213.748" transform="matrix(0.9981 -0.0624 0.0624 0.9981 -12.7891 25.5494)" opacity="0.32" fill="#232323" width="8.159" height="7.853"/>
<rect x="401.56" y="223.096" transform="matrix(0.998 -0.0624 0.0624 0.998 -13.3819 25.7848)" opacity="0.28" fill="#6C6C6C" width="8.57" height="7.791"/>
<rect x="398.681" y="241.713" transform="matrix(0.998 -0.0625 0.0625 0.998 -14.5629 25.6373)" opacity="0.58" fill="#FFFFFF" width="8.082" height="8.001"/>
<rect x="386.745" y="223.094" transform="matrix(0.998 -0.0625 0.0625 0.998 -13.4135 24.8654)" opacity="0.13" fill="#6C6C6C" width="8.568" height="7.792"/>
<rect x="393.974" y="266.795" transform="matrix(0.9981 -0.0624 0.0624 0.9981 -16.1083 25.3509)" opacity="0.32" fill="#232323" width="8.158" height="7.853"/>
<rect x="388.585" y="252.55" transform="matrix(0.9981 -0.0623 0.0623 0.9981 -15.2233 24.9914)" opacity="0.28" fill="#6C6C6C" width="8.568" height="7.791"/>
<rect x="382.188" y="238.737" transform="matrix(0.9981 -0.0622 0.0622 0.9981 -14.3598 24.5106)" opacity="0.33" fill="#FFFFFF" width="8.08" height="8"/>
<rect x="371.601" y="249.828" transform="matrix(0.9981 -0.0623 0.0623 0.9981 -15.0849 23.9245)" opacity="0.13" fill="#6C6C6C" width="8.569" height="7.788"/>
<rect x="372.777" y="265.324" transform="matrix(0.998 -0.0625 0.0625 0.998 -16.0853 24.0702)" opacity="0.32" fill="#232323" width="8.159" height="7.853"/>
<polygon opacity="0.33" fill="#FFFFFF" points="353.757,360.439 347.792,362.078 346.161,356.202 352.13,354.563 "/>
<polygon opacity="0.28" fill="#6C6C6C" points="363.814,369.62 357.918,371.241 356.439,365.914 362.335,364.291 "/>
<rect x="325.126" y="249.689" transform="matrix(0.9981 -0.0624 0.0624 0.9981 -15.1739 21.0215)" opacity="0.32" fill="#232323" width="8.159" height="7.855"/>
<rect x="339.423" y="259.37" transform="matrix(0.9981 -0.0623 0.0623 0.9981 -15.7525 21.9267)" opacity="0.33" fill="#FFFFFF" width="8.082" height="8.002"/>
<rect x="325.709" y="262.357" transform="matrix(0.9981 -0.0623 0.0623 0.9981 -15.9535 21.0858)" opacity="0.28" fill="#6C6C6C" width="8.57" height="7.789"/>
<rect x="326.747" y="274.95" transform="matrix(0.9981 -0.0622 0.0622 0.9981 -16.7194 21.1274)" opacity="0.58" fill="#FFFFFF" width="8.081" height="8.002"/>
<rect x="339.911" y="271.179" transform="matrix(0.9981 -0.0623 0.0623 0.9981 -16.4794 21.9932)" opacity="0.13" fill="#6C6C6C" width="8.568" height="7.791"/>
<rect x="298.732" y="243.421" transform="matrix(0.998 -0.0625 0.0625 0.998 -14.8615 19.4014)" opacity="0.32" fill="#232323" width="8.159" height="7.853"/>
<rect x="350.838" y="285.118" transform="matrix(0.9981 -0.0623 0.0623 0.9981 -17.3252 22.6989)" opacity="0.28" fill="#6C6C6C" width="8.569" height="7.791"/>
<rect x="312.081" y="255.407" transform="matrix(0.9981 -0.0624 0.0624 0.9981 -15.5621 20.2192)" opacity="0.33" fill="#FFFFFF" width="8.08" height="8"/>
<rect x="387.819" y="150.619" transform="matrix(0.9981 -0.0623 0.0623 0.9981 -8.8562 24.7095)" opacity="0.32" fill="#232323" width="7.686" height="7.399"/>
<rect x="388.37" y="162.552" transform="matrix(0.998 -0.0624 0.0624 0.998 -9.6108 24.8195)" opacity="0.28" fill="#6C6C6C" width="8.072" height="7.338"/>
<rect x="389.483" y="176.614" transform="matrix(0.9981 -0.0623 0.0623 0.9981 -10.4799 24.8679)" opacity="0.58" fill="#FFFFFF" width="7.613" height="7.539"/>
<rect x="375.415" y="162.627" transform="matrix(0.9981 -0.0623 0.0623 0.9981 -9.6225 23.9611)" opacity="0.13" fill="#6C6C6C" width="8.073" height="7.338"/>
<rect x="367.243" y="176.753" transform="matrix(0.9981 -0.0623 0.0623 0.9981 -10.5237 23.475)" opacity="0.32" fill="#232323" width="7.687" height="7.398"/>
<rect x="378.512" y="199.945" transform="matrix(0.9981 -0.0624 0.0624 0.9981 -11.9521 24.2503)" opacity="0.28" fill="#6C6C6C" width="8.073" height="7.339"/>
<rect x="377.077" y="185.473" transform="matrix(0.9981 -0.0623 0.0623 0.9981 -11.0562 24.1117)" opacity="0.33" fill="#FFFFFF" width="7.613" height="7.537"/>
<rect x="361.486" y="194.269" transform="matrix(0.9981 -0.0623 0.0623 0.9981 -11.6299 23.1748)" opacity="0.13" fill="#6C6C6C" width="8.074" height="7.337"/>
<rect x="362.595" y="208.87" transform="matrix(0.9981 -0.0623 0.0623 0.9981 -12.5341 23.2477)" opacity="0.32" fill="#232323" width="7.687" height="7.399"/>
<rect x="333.414" y="203.045" transform="matrix(0.9981 -0.0624 0.0624 0.9981 -12.2523 21.4706)" opacity="0.28" fill="#6C6C6C" width="8.57" height="7.79"/>
<rect x="306.153" y="185.237" transform="matrix(0.9981 -0.0624 0.0624 0.9981 -11.1917 19.713)" opacity="0.32" fill="#232323" width="8.159" height="7.853"/>
<rect x="320.45" y="194.917" transform="matrix(0.9981 -0.0624 0.0624 0.9981 -11.7722 20.6209)" opacity="0.33" fill="#FFFFFF" width="8.081" height="8.002"/>
<rect x="306.736" y="197.904" transform="matrix(0.9981 -0.0624 0.0624 0.9981 -11.9835 19.7963)" opacity="0.28" fill="#6C6C6C" width="8.57" height="7.789"/>
<rect x="307.772" y="210.498" transform="matrix(0.9981 -0.0623 0.0623 0.9981 -12.7669 19.8583)" opacity="0.58" fill="#FFFFFF" width="8.082" height="8"/>
<rect x="320.937" y="206.727" transform="matrix(0.9981 -0.0623 0.0623 0.9981 -12.4968 20.6826)" opacity="0.13" fill="#6C6C6C" width="8.569" height="7.789"/>
<rect x="279.761" y="178.968" transform="matrix(0.9981 -0.0624 0.0624 0.9981 -10.856 18.0616)" opacity="0.32" fill="#232323" width="8.157" height="7.853"/>
<rect x="331.865" y="220.666" transform="matrix(0.9981 -0.0623 0.0623 0.9981 -13.3444 21.3909)" opacity="0.28" fill="#6C6C6C" width="8.569" height="7.79"/>
<rect x="293.107" y="190.955" transform="matrix(0.9981 -0.0623 0.0623 0.9981 -11.5677 18.8896)" opacity="0.33" fill="#FFFFFF" width="8.081" height="7.998"/>
<rect x="322.863" y="150.192" transform="matrix(0.9981 -0.0623 0.0623 0.9981 -8.9689 20.6927)" opacity="0.28" fill="#6C6C6C" width="8.569" height="7.789"/>
<rect x="295.602" y="132.383" transform="matrix(0.9981 -0.0624 0.0624 0.9981 -7.9165 18.9522)" opacity="0.32" fill="#232323" width="8.159" height="7.854"/>
<rect x="309.898" y="142.064" transform="matrix(0.9981 -0.0623 0.0623 0.9981 -8.4951 19.8553)" opacity="0.33" fill="#FFFFFF" width="8.083" height="8.002"/>
<rect x="296.186" y="145.049" transform="matrix(0.9981 -0.0623 0.0623 0.9981 -8.7011 19.0219)" opacity="0.28" fill="#6C6C6C" width="8.568" height="7.79"/>
<rect x="297.224" y="157.643" transform="matrix(0.9981 -0.0624 0.0624 0.9981 -9.4942 19.1024)" opacity="0.58" fill="#FFFFFF" width="8.08" height="8.001"/>
<rect x="310.387" y="153.872" transform="matrix(0.9981 -0.0623 0.0623 0.9981 -9.2216 19.9198)" opacity="0.13" fill="#6C6C6C" width="8.57" height="7.79"/>
<rect x="269.5" y="130.78" transform="matrix(0.9981 -0.0623 0.0623 0.9981 -7.8621 17.3088)" opacity="0.32" fill="#232323" width="8.157" height="7.853"/>
<rect x="337.624" y="140.9" transform="matrix(0.9981 -0.0624 0.0624 0.9981 -8.3671 21.6122)" opacity="0.28" fill="#6C6C6C" width="8.57" height="7.789"/>
<rect x="280.224" y="138.246" transform="matrix(0.9981 -0.0624 0.0624 0.9981 -8.3167 18.0023)" opacity="0.33" fill="#FFFFFF" width="8.081" height="8"/>
<rect x="348.224" y="117.554" transform="matrix(0.9981 -0.0624 0.0624 0.9981 -6.89 22.228)" opacity="0.28" fill="#6C6C6C" width="8.57" height="7.789"/>
<rect x="371.69" y="94.481" transform="matrix(0.9981 -0.0623 0.0623 0.9981 -5.4011 23.628)" opacity="0.13" fill="#6C6C6C" width="8.569" height="7.79"/>
<rect x="359.008" y="109.933" transform="matrix(0.9981 -0.0624 0.0624 0.9981 -6.3946 22.8677)" opacity="0.32" fill="#232323" width="8.157" height="7.852"/>
<rect x="364.465" y="120.423" transform="matrix(0.9981 -0.0624 0.0624 0.9981 -7.0373 23.2468)" opacity="0.28" fill="#6C6C6C" width="8.57" height="7.789"/>
<rect x="349.811" y="131.078" transform="matrix(0.9981 -0.0623 0.0623 0.9981 -7.7242 22.3328)" opacity="0.13" fill="#6C6C6C" width="8.57" height="7.789"/>
<rect x="350.989" y="146.575" transform="matrix(0.9981 -0.0624 0.0624 0.9981 -8.6946 22.4362)" opacity="0.32" fill="#232323" width="8.158" height="7.853"/>
<rect x="364.782" y="136.656" transform="matrix(0.9981 -0.0623 0.0623 0.9981 -8.0522 23.2691)" opacity="0.58" fill="#FFFFFF" width="8.082" height="8"/>
<rect x="299.329" y="107.907" transform="matrix(0.9981 -0.0623 0.0623 0.9981 -6.3788 19.1434)" opacity="0.28" fill="#6C6C6C" width="8.569" height="7.79"/>
<rect x="278.251" y="76.261" transform="matrix(0.9981 -0.0624 0.0624 0.9981 -4.4507 17.7611)" opacity="0.32" fill="#232323" width="8.159" height="7.853"/>
<rect x="292.55" y="85.941" transform="matrix(0.9981 -0.0624 0.0624 0.9981 -5.0312 18.6691)" opacity="0.33" fill="#FFFFFF" width="8.081" height="8.001"/>
<rect x="278.835" y="88.927" transform="matrix(0.9981 -0.0623 0.0623 0.9981 -5.235 17.827)" opacity="0.28" fill="#6C6C6C" width="8.57" height="7.789"/>
<rect x="279.872" y="101.522" transform="matrix(0.9981 -0.0624 0.0624 0.9981 -6.0274 17.909)" opacity="0.58" fill="#FFFFFF" width="8.081" height="7.999"/>
<rect x="293.036" y="97.751" transform="matrix(0.9981 -0.0623 0.0623 0.9981 -5.7532 18.7141)" opacity="0.13" fill="#6C6C6C" width="8.569" height="7.789"/>
<rect x="262.872" y="82.123" transform="matrix(0.9981 -0.0623 0.0623 0.9981 -4.8503 16.8091)" opacity="0.33" fill="#FFFFFF" width="8.082" height="8"/>
<polygon opacity="0.58" fill="#FFFFFF" points="297.04,38.742 296.766,30.093 304.785,29.874 305.059,38.521 "/>
<rect x="291.65" y="43.158" transform="matrix(0.0624 0.9981 -0.9981 0.0624 324.5888 -251.175)" opacity="0.33" fill="#FFFFFF" width="8.656" height="8.023"/>
<rect x="284.372" y="13.931" transform="matrix(0.0625 0.998 -0.998 0.0625 288.7175 -271.6753)" opacity="0.28" fill="#6C6C6C" width="9.179" height="7.811"/>
<rect x="279.949" y="41.472" transform="matrix(0.0623 0.9981 -0.9981 0.0623 312.0919 -241.4382)" opacity="0.28" fill="#6C6C6C" width="9.181" height="7.809"/>
<rect x="303.328" y="42.412" transform="matrix(0.0624 0.9981 -0.9981 0.0624 334.7703 -263.6402)" opacity="0.32" fill="#232323" width="8.739" height="7.874"/>
<rect x="284.033" y="28.896" transform="matrix(0.0624 0.9981 -0.9981 0.0624 303.1879 -257.0558)" opacity="0.26" fill="#232323" width="8.739" height="7.873"/>
<rect x="293.909" y="58.06" transform="matrix(0.0623 0.9981 -0.9981 0.0623 341.7319 -239.8163)" opacity="0.13" fill="#6C6C6C" width="9.179" height="7.809"/>
<rect x="318.848" y="87.46" transform="matrix(0.9981 -0.0624 0.0624 0.9981 -5.0693 20.3344)" opacity="0.28" fill="#6C6C6C" width="8.571" height="7.789"/>
<rect x="327.447" y="64.114" transform="matrix(0.9981 -0.0623 0.0623 0.9981 -3.5945 20.8134)" opacity="0.28" fill="#6C6C6C" width="8.568" height="7.789"/>
<rect x="348.151" y="43.906" transform="matrix(0.9981 -0.0624 0.0624 0.9981 -2.2953 22.0775)" opacity="0.13" fill="#6C6C6C" width="8.571" height="7.789"/>
<rect x="338.23" y="56.492" transform="matrix(0.9981 -0.0623 0.0623 0.9981 -3.101 21.4601)" opacity="0.32" fill="#232323" width="8.16" height="7.852"/>
<rect x="345.688" y="66.982" transform="matrix(0.9981 -0.0624 0.0624 0.9981 -3.7404 21.9738)" opacity="0.28" fill="#6C6C6C" width="8.569" height="7.79"/>
<rect x="331.036" y="77.638" transform="matrix(0.9981 -0.0623 0.0623 0.9981 -4.4307 21.0634)" opacity="0.13" fill="#6C6C6C" width="8.568" height="7.789"/>
<rect x="332.213" y="93.135" transform="matrix(0.9981 -0.0624 0.0624 0.9981 -5.3985 21.1612)" opacity="0.32" fill="#232323" width="8.158" height="7.854"/>
<rect x="346.005" y="83.217" transform="matrix(0.9981 -0.0624 0.0624 0.9981 -4.7578 21.9997)" opacity="0.58" fill="#FFFFFF" width="8.08" height="8"/>
<rect x="388.4" y="333.889" transform="matrix(0.9981 -0.0623 0.0623 0.9981 -20.2063 25.0222)" opacity="0.32" fill="#232323" width="5.486" height="5.283"/>
<rect x="379.195" y="302.906" transform="matrix(0.9981 -0.0624 0.0624 0.9981 -18.2951 24.4061)" opacity="0.28" fill="#6C6C6C" width="5.072" height="4.61"/>
<rect x="382.389" y="315.418" transform="matrix(0.9981 -0.0624 0.0624 0.9981 -19.0695 24.6297)" opacity="0.13" fill="#6C6C6C" width="5.072" height="4.611"/>
<rect x="384.345" y="321.47" transform="matrix(0.9981 -0.0623 0.0623 0.9981 -19.4074 24.7055)" opacity="0.32" fill="#232323" width="4.847" height="4.664"/>
<rect x="391.338" y="343.091" transform="matrix(0.9981 -0.0622 0.0622 0.9981 -20.7263 25.1629)" opacity="0.33" fill="#FFFFFF" width="4.393" height="4.349"/>
<g>
	<path fill="#FFFFFF" d="M399.687,431.965c0.62-0.294,1.346-0.465,2.183-0.465h1.093c-8.961-4.567-61.984-21.071-61.984-21.071
		c-21.82-8.431-57.729-30.927-57.729-30.927c-26.695-22.173-85.969-41.266-85.969-41.266c-50.225-15.237-70.071-7.359-70.071-7.359
		c14.914-0.743,56.488,14.56,56.488,14.56c33.282,11.636,88.034,52.497,88.034,52.497c39.258,31.036,107.962,33.882,127.03,34.057
		C399.07,431.981,399.379,431.973,399.687,431.965z"/>
</g>
<g>
	
		<linearGradient id="SVGID_21_" gradientUnits="userSpaceOnUse" x1="132.4136" y1="390.293" x2="393.9615" y2="390.293" gradientTransform="matrix(0.9921 -0.1255 0.1255 0.9921 -44.7314 26.7005)">
		<stop  offset="0" style="stop-color:#000000"/>
		<stop  offset="0.0896" style="stop-color:#000000;stop-opacity:0.9104"/>
		<stop  offset="1" style="stop-color:#000000;stop-opacity:0"/>
	</linearGradient>
	<path fill="url(#SVGID_21_)" d="M399.687,431.965c0.62-0.294,1.346-0.465,2.183-0.465h1.093
		c-8.961-4.567-61.984-21.071-61.984-21.071c-21.82-8.431-57.729-30.927-57.729-30.927c-26.695-22.173-85.969-41.266-85.969-41.266
		c-50.225-15.237-70.071-7.359-70.071-7.359c14.914-0.743,56.488,14.56,56.488,14.56c33.282,11.636,88.034,52.497,88.034,52.497
		c39.258,31.036,107.962,33.882,127.03,34.057C399.07,431.981,399.379,431.973,399.687,431.965z"/>
</g>
<polygon opacity="0.32" fill="#232323" points="260.562,371.536 253.27,372.353 252.383,366.137 259.672,365.32 "/>
<polygon opacity="0.58" fill="#FFFFFF" points="262.396,384.641 255.174,385.449 254.27,379.118 261.493,378.309 "/>
<polygon opacity="0.13" fill="#6C6C6C" points="275.683,380.629 268.025,381.485 267.144,375.321 274.804,374.463 "/>
<polygon opacity="0.28" fill="#6C6C6C" points="323.276,415.88 315.617,416.737 314.737,410.572 322.396,409.715 "/>
<polygon opacity="0.58" fill="#FFFFFF" points="297.875,394.009 290.653,394.816 289.749,388.485 296.971,387.676 "/>
<polygon opacity="0.28" fill="#6C6C6C" points="299.762,405.672 292.103,406.528 291.224,400.364 298.882,399.506 "/>
<polygon opacity="0.32" fill="#232323" points="312.417,405.532 305.127,406.35 304.237,400.133 311.53,399.316 "/>
<polygon opacity="0.58" fill="#FFFFFF" points="337.732,417.478 330.512,418.285 329.606,411.954 336.828,411.145 "/>
<polygon opacity="0.13" fill="#6C6C6C" points="354.084,424.643 346.426,425.5 345.546,419.336 353.204,418.479 "/>
<polygon opacity="0.28" fill="#6C6C6C" points="277.161,390.972 269.503,391.829 268.623,385.664 276.28,384.806 "/>
<polygon opacity="0.32" fill="#232323" points="363.46,424.077 358.557,424.627 357.96,420.444 362.863,419.895 "/>
<polygon opacity="0.13" fill="#6C6C6C" points="246.251,369.954 238.594,370.812 237.713,364.646 245.372,363.789 "/>
<polygon opacity="0.13" fill="#6C6C6C" points="383.573,430.761 375.914,431.618 375.035,425.453 382.692,424.596 "/>
<polygon opacity="0.32" fill="#232323" points="221.301,356.676 214.01,357.492 213.122,351.276 220.413,350.459 "/>
<polygon opacity="0.28" fill="#6C6C6C" points="205.97,350.714 198.312,351.573 197.431,345.407 205.089,344.549 "/>
<polygon opacity="0.28" fill="#6C6C6C" points="236.607,361.223 228.949,362.081 228.068,355.916 235.728,355.058 "/>
<polygon opacity="0.32" fill="#232323" points="168.443,337.105 163.239,337.689 162.606,333.252 167.81,332.668 "/>
</svg>
