<?xml version="1.0" encoding="utf-8"?>
<!-- Generator: Adobe Illustrator 15.0.0, SVG Export Plug-In . SVG Version: 6.00 Build 0)  -->
<!DOCTYPE svg PUBLIC "-//W3C//DTD SVG 1.1//EN" "http://www.w3.org/Graphics/SVG/1.1/DTD/svg11.dtd">
<svg version="1.1" id="Layer_1" xmlns="http://www.w3.org/2000/svg" xmlns:xlink="http://www.w3.org/1999/xlink" x="0px" y="0px"
	 width="512px" height="512px" viewBox="0 0 512 512" enable-background="new 0 0 512 512" xml:space="preserve">
<path fill="#FFC60B" d="M131.498,420.628c0,0,154.5,102.076,241.909,59.635c0,0,69.135-43.043,17.313-94.382
	c0,0-40.759-49.777-153.537-7.095L131.498,420.628z"/>
<path fill="#FFC60B" d="M447.229,117.521c0,0-113.981,146.805-71.298,236.379c0,0,43.885,71.538,100.394,23.324
	c0,0,54.467-37.272,12.264-152.095L447.229,117.521z"/>
<path fill="#FFC60B" d="M21.846,289.935c0,0,137.666,99.794,220.025,64.205c0,0,64.446-36.913,18.877-86.208
	c0,0-34.146-47.372-139.832-12.384L21.846,289.935z"/>
<path fill="#FFC60B" d="M306.557,34.8c0,0-93.42,135.262-50.377,210.649c0,0,43.044,59.514,90.896,13.826
	c0,0,46.53-35.95,2.526-133.338L306.557,34.8z"/>
<path fill="#FFC60B" d="M8.5,72.433c0,0,61.8,148.007,148.007,149.33c0,0,73.101-6.733,61.078-70.457
	c0,0-4.568-57.832-109.773-69.374L8.5,72.433z"/>
<polygon opacity="0.58" fill="#FFFFFF" enable-background="new    " points="96.39,99.366 128.974,104.656 123.683,136.638 
	91.22,131.348 "/>
<polygon opacity="0.28" fill="#F15D22" enable-background="new    " points="43.273,79.046 78.566,85.299 73.37,120.646 
	38.077,114.396 "/>
<polygon opacity="0.28" fill="#F15D22" enable-background="new    " points="131.739,170.905 171.776,177.397 165.885,213.467 
	125.967,207.094 "/>
<polygon opacity="0.32" fill="#775C25" enable-background="new    " points="216.863,311.576 246.08,316.266 241.992,341.394 
	212.775,336.706 "/>
<polygon opacity="0.58" fill="#FFFFFF" enable-background="new    " points="64.408,279.475 93.384,284.163 88.455,314.343 
	59.479,309.773 "/>
<polygon opacity="0.13" fill="#F15D22" enable-background="new    " points="108.173,263.483 142.68,269.014 137.029,303.401 
	102.522,297.87 "/>
<polygon opacity="0.32" fill="#775C25" enable-background="new    " points="156.266,248.214 185.483,252.782 181.154,279.475 
	153.14,275.025 "/>
<polygon opacity="0.33" fill="#FFFFFF" enable-background="new    " points="156.507,277.55 185.122,282.119 180.553,310.614 
	151.817,306.046 "/>
<polygon opacity="0.28" fill="#F15D22" enable-background="new    " points="166.726,321.316 195.583,325.884 191.495,351.013 
	162.639,346.444 "/>
<polygon opacity="0.58" fill="#FFFFFF" enable-background="new    " points="125.967,309.053 153.981,313.501 149.172,343.558 
	121.158,338.989 "/>
<polygon opacity="0.13" fill="#F15D22" enable-background="new    " points="197.386,258.914 226.843,263.724 221.192,298.712 
	191.614,294.022 "/>
<polygon opacity="0.58" fill="#FFFFFF" enable-background="new    " points="234.778,270.578 260.267,274.785 255.098,306.407 
	229.608,302.078 "/>
<polygon opacity="0.32" fill="#775C25" enable-background="new    " points="376.532,477.617 340.583,471.847 345.873,439.384 
	381.822,445.155 "/>
<polygon opacity="0.58" fill="#FFFFFF" enable-background="new    " points="177.307,412.691 210.371,417.983 205.922,445.516 
	172.858,440.226 "/>
<polygon opacity="0.13" fill="#F15D22" enable-background="new    " points="213.617,398.866 247.162,404.275 242.112,435.056 
	208.688,429.766 "/>
<polygon opacity="0.32" fill="#775C25" enable-background="new    " points="284.073,372.774 319.662,378.426 314.974,407.402 
	279.385,401.631 "/>
<polygon opacity="0.33" fill="#FFFFFF" enable-background="new    " points="296.337,410.527 331.926,416.179 326.756,448.041 
	291.288,442.271 "/>
<polygon opacity="0.28" fill="#F15D22" enable-background="new    " points="319.301,488.198 279.023,481.826 284.193,450.084 
	324.353,456.458 "/>
<polygon opacity="0.58" fill="#FFFFFF" enable-background="new    " points="238.145,435.896 268.443,440.827 263.875,469.201 
	233.576,464.392 "/>
<polygon opacity="0.13" fill="#F15D22" enable-background="new    " points="331.565,367.004 369.439,373.136 364.63,402.713 
	326.756,396.702 "/>
<polygon opacity="0.58" fill="#FFFFFF" enable-background="new    " points="386.15,437.34 353.688,431.342 358.018,400.377 
	390.48,406.374 "/>
<polygon opacity="0.32" fill="#775C25" enable-background="new    " points="290.806,75.079 322.428,78.325 319.301,109.104 
	287.681,105.858 "/>
<polygon opacity="0.33" fill="#FFFFFF" enable-background="new    " points="314.974,116.438 343.469,119.324 340.583,147.579 
	312.208,144.693 "/>
<polygon opacity="0.28" fill="#F15D22" enable-background="new    " points="272.411,123.413 305.234,126.779 302.229,156.717 
	269.405,153.35 "/>
<polygon opacity="0.58" fill="#FFFFFF" enable-background="new    " points="294.053,190.983 323.991,193.989 320.985,223.687 
	291.047,220.681 "/>
<polygon opacity="0.13" fill="#F15D22" enable-background="new    " points="319.182,156.236 354.05,159.843 350.803,191.584 
	315.936,188.098 "/>
<polygon opacity="0.32" fill="#775C25" enable-background="new    " points="255.098,165.975 283.593,168.86 280.827,196.393 
	252.332,193.508 "/>
<polygon opacity="0.28" fill="#F15D22" enable-background="new    " points="284.313,235.709 316.777,238.956 313.892,268.652 
	281.309,265.288 "/>
<polygon opacity="0.32" fill="#775C25" enable-background="new    " points="139.794,103.454 172.858,108.744 167.808,140.365 
	134.625,135.075 "/>
<polygon opacity="0.26" fill="#775C25" enable-background="new    " points="109.616,178.72 76.552,173.429 81.602,141.808 
	114.786,147.098 "/>
<polygon opacity="0.32" fill="#775C25" enable-background="new    " points="428.474,152.989 461.057,158.16 456.007,189.3 
	423.424,184.009 "/>
<polygon opacity="0.33" fill="#FFFFFF" enable-background="new    " points="447.229,202.646 478.369,207.575 472.599,243.164 
	441.458,238.235 "/>
<polygon opacity="0.28" fill="#F15D22" enable-background="new    " points="406.109,200.963 438.332,206.132 433.643,235.229 
	401.421,230.059 "/>
<polygon opacity="0.58" fill="#FFFFFF" enable-background="new    " points="389.157,245.449 423.062,250.859 417.533,284.885 
	383.626,279.475 "/>
<polygon opacity="0.13" fill="#F15D22" enable-background="new    " points="455.79,250.979 492.797,257.352 488.072,289.213 
	450.952,282.842 "/>
<polygon opacity="0.32" fill="#775C25" enable-background="new    " points="386.032,294.503 425.589,300.876 419.816,336.585 
	380.26,330.213 "/>
<polygon opacity="0.28" fill="#F15D22" enable-background="new    " points="457.93,302.68 491.114,307.97 486.306,338.028 
	453.002,332.617 "/>
<polygon opacity="0.33" fill="#FFFFFF" enable-background="new    " points="414.646,345.121 445.306,350.051 440.496,380.229 
	409.837,375.3 "/>
<polygon opacity="0.13" fill="#F15D22" enable-background="new    " points="177.908,135.676 210.371,140.846 204.72,175.714 
	172.257,170.543 "/>
</svg>
