<?xml version="1.0" encoding="UTF-8" standalone="no"?>
<svg width="145px" height="40px" viewBox="0 0 145 40" version="1.1" xmlns="http://www.w3.org/2000/svg" xmlns:xlink="http://www.w3.org/1999/xlink" xmlns:sketch="http://www.bohemiancoding.com/sketch/ns">
    <title>cbmi</title>
    <description>Created with Sketch (http://www.bohemiancoding.com/sketch)</description>
    <defs></defs>
    <g id="Page-1" stroke="none" stroke-width="1" fill="none" fill-rule="evenodd" sketch:type="MSPage">
        <g id="CBMi" sketch:type="MSLayerGroup">
            <path d="M34.296,30.194 C33.575,32.777 32.132,36.784 31.188,38.629 C29.746,38.945 24.64,40 20.866,40 C6.104,40 0,30.879 0,22.497 C0,11.637 8.713,4.151 21.976,4.151 C26.472,4.151 30.578,5.258 32.077,5.574 C32.576,8.474 32.964,10.899 33.353,14.167 L31.3,14.537 C29.468,8.315 25.195,6.47 20.922,6.47 C12.875,6.47 8.435,13.64 8.435,21.443 C8.435,31.143 13.929,37.522 21.477,37.522 C26.083,37.522 29.524,34.728 32.354,29.403 L34.296,30.194" id="Fill-1" fill="#343F48" sketch:type="MSShapeGroup"></path>
            <path d="M51.241,22.377 L51.241,35.007 C51.241,35.664 51.39,36.165 51.686,36.509 C51.982,36.854 52.386,37.026 52.897,37.026 L57.642,37.026 C59.964,37.026 61.789,36.423 63.115,35.218 C64.441,34.013 65.104,32.245 65.104,29.913 C65.104,27.471 64.396,25.605 62.979,24.313 C61.562,23.022 59.503,22.377 56.801,22.377 L51.241,22.377 L51.241,22.377 L51.241,22.377 L51.241,22.377 Z M51.241,20.194 L55.368,20.194 C58.201,20.194 60.228,19.631 61.447,18.506 C62.666,17.382 63.275,15.522 63.275,12.929 C63.275,10.679 62.69,9.078 61.521,8.125 C60.351,7.172 58.127,6.695 54.849,6.695 C53.284,6.695 52.292,6.828 51.871,7.094 C51.451,7.359 51.241,7.844 51.241,8.546 L51.241,20.194 L51.241,20.194 L51.241,20.194 L51.241,20.194 Z M38.144,4.488 L60.31,4.488 C63.753,4.488 66.463,5.267 68.44,6.822 C70.417,8.378 71.406,10.313 71.406,12.627 C71.406,14.661 70.619,16.381 69.045,17.788 C67.472,19.196 65.112,20.29 61.966,21.072 C66.133,21.73 69.095,22.818 70.85,24.337 C72.604,25.857 73.481,27.76 73.481,30.046 C73.481,32.067 72.855,33.806 71.603,35.262 C70.713,36.296 69.161,37.212 66.945,38.011 C64.729,38.81 62.114,39.209 59.099,39.209 L38.144,39.209 L38.144,37.026 L41.505,37.026 C42.082,37.026 42.518,36.861 42.814,36.533 C43.21,36.079 43.408,35.539 43.408,34.913 L43.408,8.033 C43.408,7.626 43.222,7.298 42.852,7.047 C42.481,6.797 41.859,6.672 40.986,6.672 L38.144,6.672 L38.144,4.488 L38.144,4.488 Z M38.144,4.488" id="Fill-2" fill="#343F48" sketch:type="MSShapeGroup"></path>
            <path d="M76.206,4.488 L90.925,4.488 L99.226,28.011 L107.49,4.488 L122.589,4.488 L122.589,6.672 L119.313,6.672 C118.502,6.672 117.942,6.812 117.637,7.094 C117.331,7.376 117.178,7.861 117.178,8.55 L117.178,35.077 C117.178,35.75 117.343,36.212 117.675,36.462 C118.171,36.838 118.841,37.026 119.685,37.026 L122.589,37.026 L122.589,39.209 L103.981,39.209 L103.981,37.026 L107.491,37.026 C108.134,37.026 108.624,36.854 108.962,36.509 C109.299,36.165 109.468,35.688 109.468,35.077 L109.468,6.672 L97.855,39.209 L95.669,39.209 L84.089,6.39 L84.089,31.767 C84.089,33.223 84.575,34.416 85.547,35.347 C86.519,36.278 87.928,36.838 89.772,37.026 L89.772,39.209 L76.206,39.209 L76.206,37.026 C77.92,36.885 79.25,36.314 80.197,35.312 C81.145,34.31 81.618,33.035 81.618,31.485 L81.618,9.043 C81.618,8.088 81.445,7.455 81.099,7.141 C80.753,6.828 80.086,6.672 79.098,6.672 L76.206,6.672 L76.206,4.488" id="Fill-3" fill="#343F48" sketch:type="MSShapeGroup"></path>
            <path d="M135.596,0.379 C136.839,0.379 137.905,0.82 138.796,1.701 C139.687,2.583 140.132,3.654 140.132,4.916 C140.132,6.178 139.687,7.249 138.796,8.13 C137.905,9.012 136.839,9.452 135.596,9.452 C134.333,9.452 133.258,9.007 132.367,8.116 C131.477,7.226 131.031,6.159 131.031,4.916 C131.031,3.654 131.477,2.583 132.367,1.701 C133.258,0.82 134.333,0.379 135.596,0.379 C135.596,0.379 134.333,0.379 135.596,0.379 L135.596,0.379 L135.596,0.379 Z M128.442,13.158 L140.021,13.126 L140.021,34.756 C140.021,35.35 140.211,35.809 140.591,36.134 C140.972,36.458 141.552,36.621 142.331,36.621 L144.085,36.621 L144.085,39.209 L128.442,39.209 L128.442,36.621 L130.169,36.621 C131.097,36.621 131.75,36.408 132.13,35.98 C132.511,35.554 132.701,34.811 132.701,33.754 L132.701,18.669 C132.701,17.723 132.427,16.99 131.88,16.47 C131.333,15.951 130.576,15.691 129.612,15.691 L128.442,15.691 L128.442,13.158 L128.442,13.158 Z M128.442,13.158" id="Fill-4" fill="#5EB1C8" sketch:type="MSShapeGroup"></path>
        </g>
    </g>
</svg>